<?xml version="1.0" encoding="utf-8"?>
<!-- Generator: Adobe Illustrator 14.0.0, SVG Export Plug-In . SVG Version: 6.00 Build 43363)  -->
<!DOCTYPE svg PUBLIC "-//W3C//DTD SVG 1.1//EN" "http://www.w3.org/Graphics/SVG/1.1/DTD/svg11.dtd">
<svg version="1.1" id="Capa_1" xmlns="http://www.w3.org/2000/svg" xmlns:xlink="http://www.w3.org/1999/xlink" x="0px" y="0px"
	 width="600px" height="600px" viewBox="0 0 600 600" enable-background="new 0 0 600 600" xml:space="preserve">
<rect y="500" fill="#0B72B5" width="100" height="100"/>
<rect y="400" fill="#F29400" width="100" height="100"/>
<rect y="300" fill="#41A62A" width="100" height="100"/>
<rect y="200" fill="#956757" width="100" height="100"/>
<rect y="100" fill="#803689" width="100" height="100"/>
<rect fill="#E5352D" width="100" height="100"/>
<rect x="100" y="500" fill="#E5352D" width="100" height="100"/>
<rect x="100" y="400" fill="#956757" width="100" height="100"/>
<rect x="100" y="300" fill="#803689" width="100" height="100"/>
<rect x="100" y="200" fill="#0B72B5" width="100" height="100"/>
<rect x="100" y="100" fill="#41A62A" width="100" height="100"/>
<rect x="100" fill="#F29400" width="100" height="100"/>
<rect x="200" y="500" fill="#F29400" width="100" height="100"/>
<rect x="200" y="400" fill="#41A62A" width="100" height="100"/>
<rect x="200" y="300" fill="#956757" width="100" height="100"/>
<rect x="200" y="200" fill="#E5352D" width="100" height="100"/>
<rect x="200" y="100" fill="#0B72B5" width="100" height="100"/>
<rect x="200" fill="#956757" width="100" height="100"/>
<rect x="300" y="500" fill="#803689" width="100" height="100"/>
<rect x="300" y="400" fill="#0B72B5" width="100" height="100"/>
<rect x="300" y="300" fill="#41A62A" width="100" height="100"/>
<rect x="300" y="200" fill="#F29400" width="100" height="100"/>
<rect x="300" y="100" fill="#956757" width="100" height="100"/>
<rect x="300" fill="#41A62A" width="100" height="100"/>
<rect x="400" y="500" fill="#41A62A" width="100" height="100"/>
<rect x="400" y="400" fill="#803689" width="100" height="100"/>
<rect x="400" y="300" fill="#F29400" width="100" height="100"/>
<rect x="400" y="200" fill="#803689" width="100" height="100"/>
<rect x="400" y="100" fill="#E5352D" width="100" height="100"/>
<rect x="400" fill="#0B72B5" width="100" height="100"/>
<rect x="500" y="500" fill="#956757" width="100" height="100"/>
<rect x="500" y="400" fill="#E5352D" width="100" height="100"/>
<rect x="500" y="300" fill="#0B72B5" width="100" height="100"/>
<rect x="500" y="200" fill="#41A62A" width="100" height="100"/>
<rect x="500" y="100" fill="#F29400" width="100" height="100"/>
<rect x="500" fill="#803689" width="100" height="100"/>
</svg>
