<?xml version="1.0" encoding="utf-8"?>
<!-- Generator: Adobe Illustrator 16.0.0, SVG Export Plug-In . SVG Version: 6.00 Build 0)  -->
<!DOCTYPE svg PUBLIC "-//W3C//DTD SVG 1.1//EN" "http://www.w3.org/Graphics/SVG/1.1/DTD/svg11.dtd">
<svg version="1.1" id="Capa_1" xmlns="http://www.w3.org/2000/svg" xmlns:xlink="http://www.w3.org/1999/xlink" x="0px" y="0px"
	 width="800px" height="600px" viewBox="0 0 800 600" enable-background="new 0 0 800 600" xml:space="preserve">
<g>
	<path fill="#F7084D" d="M105,59h-5.827C97.076,48,88,38.924,77,36.828V31H67v5.769C56,38.752,47.612,47,45.494,59H39v10h6.435
		C47.438,80,56,88.563,67,90.566V97h10v-6.493C89,88.39,97.25,80,99.232,69H105V59z"/>
</g>
<g>
	<polygon fill="#0C8BF2" points="131.736,97 112.035,63 131.736,29 171.139,29 190.84,63 171.139,97 	"/>
</g>
<g>
	<path fill="#F7084D" d="M340,81c0,6.627-5.373,12-12,12h-35c-6.627,0-12-5.373-12-12V46c0-6.627,5.373-12,12-12h35
		c6.627,0,12,5.373,12,12V81z"/>
</g>
<polygon fill="#F7084D" points="415.328,43.829 409.672,38.171 389.75,58.093 369.829,38.171 364.171,43.829 384.093,63.75 
	364.171,83.671 369.829,89.329 389.75,69.407 409.672,89.329 415.328,83.671 395.407,63.75 "/>
<path fill="#0BF4A6" d="M245.542,62.916c0-6.654-4.458-12.279-10.542-14.066V32h-8v16.785c-6.21,1.706-10.792,7.387-10.792,14.131
	S220.79,75.34,227,77.046V94h8V76.981C241.084,75.194,245.542,69.57,245.542,62.916z M230.875,69.583
	c-3.676,0-6.667-2.991-6.667-6.667c0-3.676,2.991-6.667,6.667-6.667s6.667,2.991,6.667,6.667
	C237.542,66.592,234.551,69.583,230.875,69.583z"/>
<g>
	<g>
		<path fill="#F7084D" d="M81.667,171.649c-10.82,0-20.998-0.419-28.659-1.181c-12.73-1.265-12.73-2.873-12.73-3.833
			s0-2.568,12.73-3.834c7.661-0.761,17.838-1.181,28.659-1.181s20.998,0.419,28.658,1.181c12.73,1.266,12.73,2.874,12.73,3.834
			s0,2.568-12.73,3.833C102.665,171.23,92.487,171.649,81.667,171.649z M42.662,166.635c2.927,1.352,16.95,3.014,39.005,3.014
			s36.078-1.662,39.005-3.014c-2.927-1.353-16.95-3.015-39.005-3.015C59.611,163.621,45.589,165.283,42.662,166.635z"/>
	</g>
	<g>
		<path fill="#F7084D" d="M81.423,201.333c-5.465,0-5.623-30.819-5.623-34.333s0.158-34.333,5.623-34.333s5.623,30.819,5.623,34.333
			S86.889,201.333,81.423,201.333z M81.423,134.738C79.898,136.203,77.8,148.114,77.8,167s2.098,30.797,3.623,32.262
			c1.525-1.464,3.623-13.376,3.623-32.262S82.948,136.202,81.423,134.738z"/>
	</g>
</g>
</svg>
