<?xml version="1.0" encoding="utf-8"?>
<!-- Generator: Adobe Illustrator 16.0.0, SVG Export Plug-In . SVG Version: 6.00 Build 0)  -->
<!DOCTYPE svg PUBLIC "-//W3C//DTD SVG 1.1//EN" "http://www.w3.org/Graphics/SVG/1.1/DTD/svg11.dtd">
<svg version="1.1" id="Capa_1" xmlns="http://www.w3.org/2000/svg" xmlns:xlink="http://www.w3.org/1999/xlink" x="0px" y="0px"
	 width="600px" height="800px" viewBox="0 0 600 800" enable-background="new 0 0 600 800" xml:space="preserve">
<polygon fill="#FFE33E" points="49.24,8.68 38.65,10.35 46.98,17.1 36.279,16.91 43.3,25 32.779,22.939 38.3,32.141 28.3,28.29 
	32.141,38.3 22.95,32.779 25,43.3 16.92,36.27 17.1,46.98 10.359,38.65 8.68,49.24 3.49,39.87 0,50 -3.48,39.87 -8.68,49.24 
	-10.36,38.66 -17.1,46.98 -16.91,36.279 -25,43.3 -22.95,32.779 -32.14,38.3 -28.3,28.3 -38.3,32.141 -32.78,22.95 -43.3,25 
	-36.26,16.91 -46.98,17.1 -38.65,10.359 -49.24,8.68 -39.87,3.49 -50,0 -39.86,-3.49 -49.24,-8.68 -38.66,-10.36 -46.98,-17.1 
	-36.27,-16.91 -43.3,-25 -32.78,-22.95 -38.3,-32.14 -28.3,-28.3 -32.14,-38.3 -22.95,-32.78 -25,-43.3 -16.92,-36.28 -17.1,-46.98 
	-10.36,-38.65 -8.68,-49.24 -3.49,-39.87 0,-50 3.49,-39.86 8.689,-49.24 10.359,-38.66 17.1,-46.98 16.91,-36.27 25,-43.3 
	22.95,-32.78 32.141,-38.3 28.3,-28.3 38.3,-32.14 32.779,-22.95 43.3,-25 36.27,-16.92 46.98,-17.1 38.66,-10.37 49.24,-8.68 
	39.859,-3.5 50,0 39.87,3.48 "/>
</svg>
