<?xml version="1.0" encoding="utf-8"?>
<!-- Generator: Adobe Illustrator 16.0.0, SVG Export Plug-In . SVG Version: 6.00 Build 0)  -->
<!DOCTYPE svg PUBLIC "-//W3C//DTD SVG 1.1//EN" "http://www.w3.org/Graphics/SVG/1.1/DTD/svg11.dtd">
<svg version="1.1" id="Capa_1" xmlns="http://www.w3.org/2000/svg" xmlns:xlink="http://www.w3.org/1999/xlink" x="0px" y="0px"
	 width="800px" height="600px" viewBox="0 0 800 600" enable-background="new 0 0 800 600" xml:space="preserve">
<g>
	<path d="M157.193,141.526c-3.439-4.44-7.879-7.112-12.99-9.277c-6.655-2.82-13.601-4.886-20.452-7.164
		c-5.026-1.671-11.595-3.738-16.7-1.351c-0.252,0.118-0.373,0.328-0.41,0.559c-15.83,2.259-25.297,18.948-27.074,34.096
		c-1.021,8.71,0.315,18.114,4.893,25.698c5.582,9.248,17.211,12.085,27.222,12.976c10.677,0.95,22.402,0.526,32.042-4.62
		c8.997-4.802,15.833-14.246,18.301-24.05C164.295,159.388,162.972,148.988,157.193,141.526z M161.176,161.629
		c-0.462,11.112-6.991,21.769-16.134,27.935c-9.56,6.448-22.269,6.636-33.358,5.764c-10.08-0.792-21.168-3.862-26.466-13.248
		c-4.002-7.092-4.877-15.715-4.056-23.691c0.856-8.312,3.991-16.62,9.347-23.076c5.406-6.518,13.089-10.021,21.491-10.395
		c0.273-0.012,0.406-0.217,0.403-0.421c4.502,0.003,9.342,1.932,13.288,3.221c7.22,2.359,14.582,4.548,21.431,7.878
		C157.009,140.404,161.617,151.041,161.176,161.629z"/>
	<path d="M123.202,157.202c0.249-0.202-0.032-0.514-0.277-0.477c-2.059,0.309-3.872,1.539-5.599,2.638
		c-0.062,0.039-0.123,0.083-0.185,0.123c-0.373-0.551-0.815-1.046-1.396-1.404c-0.48-0.295-0.958,0.367-0.587,0.761
		c0.384,0.409,0.701,0.849,0.993,1.3c-1.294,0.898-2.541,1.927-3.448,3.184c-0.202,0.28,0.192,0.657,0.47,0.47
		c1.228-0.826,2.385-1.748,3.587-2.61c0.25,0.478,0.486,0.967,0.713,1.473c0.377,0.843,0.937,2.393,1.943,2.645
		c0.25,0.063,0.429-0.154,0.389-0.389c-0.083-0.484-0.441-0.915-0.667-1.351c-0.354-0.682-0.646-1.401-0.956-2.104
		c-0.14-0.315-0.284-0.635-0.441-0.948c0.062-0.041,0.121-0.085,0.184-0.126C119.648,159.268,121.604,158.5,123.202,157.202z"/>
</g>
<g>
	<path d="M265.432,172.5c-0.034-0.477-0.708-0.599-0.848-0.115c-0.011,0.039-0.02,0.079-0.03,0.119
		c-0.155-3.446-1.45-6.868-2.684-10.048c-0.998-2.571-1.955-5.14-2.589-7.829c-0.699-2.965-0.475-5.959-1.578-8.839
		c-2.275-5.943-8.592-8.912-14.51-9.792c-3.214-0.478-6.975-0.607-10.103,0.38c-3.347,1.057-4.625,4.784-6.438,7.42
		c-0.278,0.405,0.303,0.755,0.632,0.488c2.605-2.119,3.39-5.63,6.833-6.717c2.955-0.933,7.003-0.491,10.003,0.036
		c5.822,1.022,11.16,4.482,12.781,10.396c0.744,2.713,0.6,5.627,1.317,8.383c0.74,2.846,1.933,5.565,2.98,8.307
		c2.351,6.154,2.691,11.638-1.254,17.245c-1.37,1.948-3.122,3.57-5.1,4.863c0.017-0.102,0.05-0.191,0.063-0.297
		c0.041-0.341-0.368-0.464-0.614-0.353c-1.598,0.721-2.951,1.797-4.215,2.983c-5.304,1.824-11.306,1.63-16.15-1.015
		c-0.352-0.227-0.71-0.443-1.081-0.64c-1.235-0.8-2.38-1.772-3.396-2.928c-4.14-4.706-3.113-11.766-2.86-17.535
		c0.109-2.502,0.108-4.993-0.269-7.474c-0.529-3.477-1.255-6.246-0.331-9.779c0.933-3.566,3.332-6.368,6.162-8.606
		c0.208-0.165-0.057-0.441-0.265-0.344c-4.74,2.222-7.198,7.142-7.625,12.187c-0.233,2.754,0.739,5.259,1.052,7.949
		c0.341,2.938,0.067,5.949-0.083,8.89c-0.26,5.105-0.458,10.722,2.794,15c2.282,3.001,5.614,5.104,9.233,6.114
		c0.102,0.065,0.204,0.13,0.305,0.196c2.151,1.403,5.011,1.297,7.461,1.512c2.636,0.231,5.301,0.69,7.9,0.016
		c2.341-0.608,5.017-2.343,6.732-4.015c0.171-0.167-0.007-0.422-0.22-0.378c-2.022,0.414-3.721,1.898-5.54,2.829
		c-2.708,1.385-5.97,0.724-8.873,0.531c-0.218-0.015-0.432-0.027-0.648-0.04c1.286-0.091,2.56-0.3,3.81-0.6
		c-0.114,0.116-0.228,0.231-0.341,0.347c-0.17,0.172,0.049,0.466,0.26,0.337c0.526-0.321,1.019-0.684,1.498-1.063
		c0.588-0.179,1.168-0.378,1.74-0.601c0.25,0.1,0.505,0.177,0.763,0.247c0,0.001-0.001,0.001-0.002,0.002
		c-0.314,0.408,0.386,0.946,0.714,0.551c0.093-0.113,0.196-0.209,0.291-0.318c0.278,0.059,0.557,0.119,0.835,0.189
		c0.132,0.034,0.306-0.097,0.245-0.245c-0.105-0.253-0.292-0.444-0.512-0.583c0.273-0.29,0.551-0.865,0.837-0.865
		c0.045,0,0.09,0,0.135,0c-0.158,0-0.313,0.529-0.469,0.797c-0.204,0.351,0.311,0.787,0.577,0.454
		c0.338-0.424,0.675-0.844,1.012-1.268c0.232-0.028,0.46-0.064,0.68-0.116c2.404,0.608,5.093-3.331,6.035-4.91
		c0.156-0.261,0.298-0.536,0.444-0.808c0.994-1.248,1.681-2.658,1.771-4.357C265.291,176.724,265.577,174.571,265.432,172.5z
		 M260.495,184.31c-0.05,0.025-0.094,0.054-0.151,0.075c-0.239,0.086-0.522,0.143-0.813,0.182c0.001-0.001,0.002-0.003,0.004-0.005
		c0.448-0.44,0.928-0.83,1.432-1.084c-0.149,0.271-0.287,0.545-0.45,0.812C260.509,184.296,260.502,184.303,260.495,184.31z"/>
	<path d="M249.625,166.548c-2.24-0.657-4.227-0.971-6.375-2.065c-1.207-0.615-2.36-1.325-3.474-2.095
		c0.853-1.397,2.03-2.799,3.606-2.462c0.554,0.118,0.791-0.721,0.234-0.852c-1.93-0.453-3.287,0.853-4.343,2.311
		c-0.102,0.141-0.193,0.288-0.289,0.433c-0.731-0.533-1.451-1.082-2.148-1.655c-0.471-0.387-1.087,0.208-0.674,0.674
		c0.652,0.736,1.394,1.403,2.183,2.021c-0.361,0.637-0.698,1.289-1.036,1.932c-0.496,0.943-1.438,2.074-1.604,3.129
		c-0.043,0.274,0.192,0.459,0.448,0.344c1.357-0.612,2.118-3.139,2.78-4.368c0.072-0.133,0.149-0.278,0.23-0.428
		c1.293,0.92,2.681,1.723,4.038,2.445c1.728,0.92,4.585,2.436,6.536,1.492C250.117,167.22,249.989,166.655,249.625,166.548z"/>
</g>
<g>
	<path d="M165.074,89c-0.172,2.614-1.736,4.867-1.758,7.5c-0.002,0.219,0.29,0.234,0.361,0.049c0.904-2.372,2.24-4.965,2.249-7.549
		C165.928,88.446,165.11,88.457,165.074,89z"/>
	<path d="M212.432,72.266c-2.708-7.137-9.291-11.601-16.292-13.89c-4.852-1.586-10.056-2.142-15.139-2.181
		c-2.63-0.02-5.208,0.504-7.748,1.133c-1.025,0.254-2.793,0.386-3.659,0.977c-0.71,0.485-1.333,0.856-2.027,1.118
		c0.042-0.032,0.079-0.069,0.121-0.102c0.004-0.003,0.081-0.007,0.085-0.01c0.142-0.078,0.228-0.23,0.228-0.374v-0.004
		c0-0.01-0.083-0.019-0.086-0.028c-0.045-0.173-0.243-0.302-0.45-0.259c-0.008,0.001-0.034-0.001-0.042,0
		c-1.974,0.439-3.566,1.948-4.917,3.696c-0.586,0.362-1.139,0.756-1.648,1.186c-0.878,0.671-1.695,1.475-2.411,2.377
		c0.21-0.748,0.322-1.531,0.215-2.405c-0.021-0.167-0.27-0.233-0.314-0.042c-0.681,2.892-2.351,5.305-3.18,8.127
		c-0.817,2.779-0.451,5.322,0.339,8.063c1.839,6.38,5.959,11.611,6.675,18.353c0.043,0.405,0.619,0.419,0.641,0
		c0.215-4.193-1.631-7.761-3.399-11.374c0.081,0.045,0.203,0.018,0.226-0.086c0.251-1.144,0.235-2.315,0.419-3.468
		c0.158-0.989,0.537-1.865,1.052-2.687c0.374,0.583,0.799,1.124,1.24,1.652c-1.489,1.565-2.691,3.979-2.008,6.004
		c0.052,0.153,0.247,0.144,0.302,0c0.37-0.965,0.452-2.028,0.781-3.015c0.299-0.896,0.811-1.696,1.438-2.392
		c0.354,0.405,0.714,0.81,1.071,1.219c-2.021,1.277-2.535,4.487-2.612,6.646c-0.006,0.165,0.247,0.243,0.32,0.087
		c0.927-1.968,1.053-4.632,2.864-6.042c0.298,0.358,0.596,0.718,0.874,1.101c-0.027,0.007-0.053,0.008-0.082,0.021
		c-2.353,1.058-3.616,4.479-3.008,6.89c0.052,0.207,0.35,0.196,0.407,0c0.666-2.275,0.855-4.765,2.992-6.222
		c0.036-0.024,0.058-0.053,0.083-0.081c0.844,1.357,1.356,2.853,1.813,4.373c-0.057-0.012-0.12-0.013-0.192,0.009
		c-1.458,0.444-2.013,2.059-2.44,3.373c-0.446,1.372-0.843,3.049-0.808,4.604c-0.37-0.721-0.743-1.436-1.094-2.146
		c-0.033-0.067-0.145-0.02-0.121,0.051c0.376,1.123,0.854,2.205,1.346,3.28c0.016,0.083,0.024,0.169,0.044,0.25
		c0.017,0.067,0.067,0.1,0.123,0.114c0.686,1.488,1.375,2.975,1.854,4.546c0.004,0.098,0.005,0.198,0.012,0.292
		c0.012,0.167,0.256,0.27,0.342,0.093c1.208-2.476,0.746-6.287,3.521-7.786c0.02-0.011,0.031-0.027,0.047-0.04
		c0.193,0.292,0.399,0.576,0.612,0.854c-0.078,0.029-0.147,0.082-0.189,0.174c-1.073,2.37-2.465,5.092-1.853,7.761
		c0.048,0.207,0.354,0.196,0.407,0c0.35-1.276,0.507-2.591,0.889-3.865c0.351-1.172,0.834-2.306,1.251-3.457
		c0.512,0.603,1.073,1.165,1.668,1.693c-1.665,1.83-2.483,4.124-2.323,6.546c-0.591-0.069-1.092,0.026-1.337,0.439
		c-0.061,0.103,0.015,0.274,0.148,0.259c0.392-0.045,0.832,0.014,1.291,0.124c0.013,0.085,0.017,0.168,0.032,0.253
		c0.033,0.178,0.319,0.174,0.354,0c0.009-0.047,0.018-0.093,0.027-0.14c0.26,0.079,0.521,0.171,0.787,0.276
		c0.062,0.376,0.175,0.71,0.369,0.955c0.062,0.079,0.22,0.079,0.281,0c0.124-0.157,0.208-0.349,0.27-0.556
		c0.867,0.405,1.688,0.84,2.345,1.135c0.018,0.111,0.023,0.224,0.048,0.334c0.045,0.2,0.339,0.188,0.392,0
		c0.012-0.042,0.021-0.083,0.032-0.125c2.078,0.895,4.536,2.178,6.829,1.774c0.062-0.011,0.099-0.048,0.122-0.093
		c1.034,0.072,2.072-0.016,3.105-0.167c2.472,0.427,5.048,0.174,7.511-0.573c-0.315,0.323-0.629,0.644-0.949,0.974
		c-0.151,0.156-0.001,0.426,0.213,0.366c0.686-0.192,1.304-0.539,1.878-0.963c2.668-0.796,4.757-2.437,6.533-4.564
		c0.22-0.185,0.451-0.362,0.661-0.554c0.003-0.003,0.001-0.006,0.003-0.009c0.702-0.606,1.237-1.403,1.694-2.254
		c1.062-1.309,1.991-2.754,2.789-4.346c0.341-0.252,0.697-0.485,1.077-0.69c0.434-0.234,0.047-0.896-0.387-0.661
		c-0.028,0.015-0.051,0.036-0.079,0.051c0.01-0.023,0.022-0.045,0.032-0.069c0.151-0.353-0.367-0.659-0.52-0.304
		c-0.149,0.347-0.319,0.669-0.482,0.999h0c0.398-0.833,0.735-1.579,0.694-1.649c0.004-0.004,0.008-0.01,0.013-0.014
		c0.16,0.025,0.246-0.113,0.208-0.238c1.078-1.164,2.075-2.402,2.94-3.725c0.06-0.027,0.112-0.075,0.141-0.15
		c0.027-0.071,0.06-0.142,0.088-0.213c0.188-0.297,0.378-0.593,0.554-0.896c-0.586,2.148-1.476,4.235-2.425,6.204
		c-1.389,2.88-3.268,6.437-6.038,8.218c-0.125,0.081-0.046,0.306,0.105,0.25c3.182-1.171,5.081-4.485,6.579-7.341
		c1.619-3.084,3.347-6.93,3.344-10.502C214.102,83.608,214.534,77.805,212.432,72.266z M158.511,67.167
		c0.058-0.004,0.114-0.021,0.151-0.072c0.658-0.886,1.354-1.643,2.108-2.309c-0.299,0.371-0.598,0.742-0.882,1.098
		c-0.083,0.104-0.033,0.212,0.055,0.253c-0.167,0.263-0.332,0.518-0.493,0.761c-0.865,0.711-1.664,1.615-2.326,2.606
		c0.158-0.315,0.316-0.631,0.476-0.945c0.002-0.003,0-0.006,0-0.01C157.89,68.078,158.187,67.612,158.511,67.167z M155.881,73.973
		c1.214-2.949,2.836-6.2,5.782-7.693c0.325-0.164,0.093-0.73-0.25-0.592c-0.448,0.181-0.894,0.434-1.331,0.734
		c0.193-0.251,0.389-0.512,0.588-0.781c1.135-0.967,2.211-1.994,3.291-3.018c0.354-0.187,0.717-0.368,1.095-0.543
		c0.653-0.301,1.311-0.581,1.964-0.864c-2.345,1.831-4.382,3.966-5.764,6.566c-0.133-0.141-0.364-0.203-0.502-0.027
		c-2.067,2.606-3.94,5.564-4.759,8.824C155.882,75.719,155.838,74.855,155.881,73.973z M157.273,81.65
		c-0.025-0.075-0.046-0.147-0.071-0.222c0.295-1.034,0.5-2.067,0.894-3.078c0.424-1.09,0.944-2.12,1.247-3.255
		c0.119-0.444-0.559-0.629-0.686-0.189c-0.484,1.675-1.645,3.425-1.865,5.22c-0.308-1.032-0.552-2.041-0.716-3.049
		c0.007-0.007,0.016-0.008,0.021-0.019c1.335-2.743,2.75-5.428,4.516-7.912c-0.214,0.516-0.409,1.045-0.571,1.597
		c-0.09,0.306-0.169,0.622-0.237,0.943c-2.071,1.337-3.353,4.551-3.423,6.814c-0.004,0.143,0.183,0.145,0.23,0.031
		c0.865-2.104,1.49-4.39,3.052-6.052c-0.259,1.698-0.198,3.508,0.223,5.127c-1.077,1.566-1.708,3.408-2.168,5.261
		C157.561,82.465,157.41,82.06,157.273,81.65z M159.339,86.458c-0.441-0.904-0.876-1.812-1.271-2.734
		c0.809-1.613,1.354-3.343,2.198-4.938c0.162,0.395,0.352,0.764,0.555,1.121C159.213,81.646,158.852,84.135,159.339,86.458z
		 M164.737,99.78c0.318-1.256,0.478-2.572,0.731-3.84c0.258-1.293,0.726-3.999,2.133-4.575c0.076-0.031,0.128-0.081,0.17-0.136
		c0.239,0.816,0.485,1.629,0.753,2.434c-0.091-0.009-0.188,0.014-0.275,0.086c-2.517,2.063-2.889,5.406-2.446,8.454
		C165.489,101.382,165.127,100.575,164.737,99.78z M166.311,103.731c-0.1-0.364-0.213-0.725-0.339-1.082
		c0.08,0.013,0.168-0.019,0.183-0.107c0.487-2.906,0.266-6.084,2.577-8.27c0.036,0.098,0.063,0.199,0.101,0.297
		c0.281,0.738,0.631,1.439,1.03,2.109C167.48,97.677,166.442,101.073,166.311,103.731z M172.44,104.466
		c-0.217,0.67-0.475,1.794-0.499,2.821c-0.195-0.068-0.39-0.131-0.583-0.182c0.409-2.227,0.737-4.356,2.303-6.144
		c0.364,0.289,0.75,0.551,1.141,0.809C173.587,102.203,172.855,103.185,172.44,104.466z M179.516,109.553
		c-0.326-0.098-0.653-0.2-0.981-0.305c0.02-0.125,0.05-0.247,0.064-0.374c0.31-0.012,0.615-0.024,0.901-0.022
		c0.454,0.002,0.454-0.706,0-0.703c-0.256,0.001-0.528-0.009-0.804-0.02c0.009-0.051,0.014-0.104,0.025-0.153
		c0.217-1.01,0.662-1.961,1.504-2.591c0.451-0.336,0.025-1.104-0.449-0.769c-0.797,0.563-1.422,1.319-1.774,2.238
		c-0.138,0.36-0.286,0.811-0.385,1.278c-0.406,0.02-0.805,0.067-1.161,0.207c-0.109,0.042-0.137,0.147-0.098,0.23
		c-0.088-0.026-0.175-0.053-0.264-0.078c0.146-0.599,0.29-1.198,0.458-1.792c0.3-1.057,0.695-2.101,0.815-3.197
		c0.039-0.354-0.542-0.515-0.684-0.186c-0.655,1.516-1.351,3.235-1.477,4.937c-0.198-0.05-0.396-0.101-0.598-0.146
		c-0.186-0.042-0.328,0.029-0.415,0.142c-0.02-0.008-0.039-0.016-0.059-0.024c-0.227-0.093-0.619-0.284-1.083-0.49
		c0.036-0.542,0.01-1.106,0.055-1.547c0.164-1.625,0.751-3.366,2.5-3.793c0.05-0.012,0.087-0.034,0.123-0.057
		c2.057,1.184,4.377,1.995,6.723,2.507c-1.046,1.184-1.917,3.076-1.849,4.625C180.242,109.489,179.879,109.524,179.516,109.553z
		 M184.255,106.608c-1.036,0.424-1.921,1.118-2.478,2.262c-0.103,0.211,0.123,0.513,0.353,0.353c0.616-0.43,1.225-0.867,1.87-1.236
		c-0.049,0.435-0.066,0.884-0.01,1.292c-0.806,0.046-1.613,0.086-2.419,0.129c0.141-0.559,0.246-1.135,0.413-1.665
		c0.313-0.992,0.835-1.969,1.608-2.681c0.395,0.07,0.789,0.127,1.183,0.182C184.535,105.654,184.375,106.114,184.255,106.608z
		 M186.751,109.057c-0.378,0.041-0.757,0.07-1.136,0.102c0.432-0.212,0.824-0.505,1.211-0.8
		C186.797,108.594,186.767,108.829,186.751,109.057z M187.05,107.17c-0.714,0.478-1.366,1.046-1.718,1.731
		c-0.063,0.123,0.006,0.237,0.111,0.273c-0.146,0.012-0.293,0.029-0.439,0.04c0.052-0.474,0.032-0.974,0.063-1.412
		c0.007-0.111,0.023-0.222,0.035-0.334c0.059-0.021,0.113-0.051,0.172-0.071c0.581-0.19,1.192-0.275,1.809-0.315
		C187.072,107.112,187.058,107.14,187.05,107.17z M185.35,106.261c0.105-0.317,0.235-0.624,0.425-0.896
		c0.274,0.03,0.55,0.065,0.821,0.086c0.408,0.033,0.814,0.043,1.22,0.053c-0.109,0.145-0.19,0.315-0.279,0.479
		C186.8,106.02,186.057,106.098,185.35,106.261z M190.429,107.361c-0.916,0.198-1.739,0.677-2.306,1.518
		c-0.114,0.017-0.226,0.042-0.34,0.057c0.146-0.495,0.245-1.034,0.379-1.535c0.216-0.134,0.439-0.402,0.661-0.402H189
		c0.705,0,0.706-1,0-1h-0.184c0.018,0,0.03-0.083,0.051-0.11c0.093-0.12,0.126-0.26,0.122-0.382
		c0.497-0.015,0.991-0.053,1.482-0.101C190.411,106.047,190.373,106.722,190.429,107.361z M191.517,105.265
		c0.855-0.125,1.699-0.302,2.531-0.52c-0.012,0.06-0.026,0.117-0.036,0.177c-0.108,0.664-0.074,1.345-0.042,2.014
		c0.005,0.108,0.005,0.223,0.005,0.338c-0.224,0.088-0.452,0.167-0.678,0.249c-0.553-0.163-1.131-0.256-1.703-0.266
		C191.634,106.601,191.577,105.904,191.517,105.265z M192.745,110.05c0.669-0.375,1.342-0.736,1.983-1.159
		c0.068-0.045,0.114-0.099,0.146-0.158c0.675-0.458,1.287-0.989,1.774-1.646c0.039-0.052,0.032-0.101,0.011-0.145
		c0.104-0.041,0.216-0.083,0.341-0.125v0.002c-1,0.868-1.461,1.696-2.229,2.502C194.104,109.594,193.426,109.833,192.745,110.05z
		 M195.264,110.556c0.236-0.223,0.466-0.455,0.686-0.697c0.764-0.354,1.507-0.748,2.223-1.179
		C197.293,109.419,196.323,110.046,195.264,110.556z M198.315,104.428c0.015-0.023,0.024-0.05,0.041-0.071
		c0.388-0.498-0.263-1.204-0.713-0.713c-0.29,0.316-0.473,0.775-0.577,1.279c-0.688,0.651-1.389,1.256-2.111,1.781
		c-0.006-0.108-0.014-0.218-0.013-0.316c0.006-0.61,0.019-1.379,0.27-1.983c1.668-0.529,3.277-1.243,4.806-2.108
		c-0.066,0.299-0.068,0.614-0.016,0.941c-0.235,0.246-0.462,0.499-0.684,0.759c-0.332,0.179-0.664,0.359-0.993,0.539
		C198.329,104.498,198.325,104.463,198.315,104.428z M199.889,106.435c-0.031,0.045-0.018,0.09,0.009,0.128
		c-0.205,0.182-0.407,0.366-0.619,0.542c-0.233,0.133-0.471,0.263-0.708,0.393c0.801-0.926,1.586-1.873,2.347-2.841
		c0.034,0.019,0.071,0.027,0.106,0.043C200.651,105.289,200.278,105.874,199.889,106.435z M202.229,101.424
		c-0.374,0.221-0.726,0.469-1.061,0.738c0.035-0.061,0.071-0.122,0.115-0.179c0.075-0.045,0.144-0.105,0.196-0.203
		c0.185-0.346,0.438-0.613,0.71-0.861c0.292-0.205,0.582-0.415,0.866-0.631c0.003,0.005,0.005,0.01,0.007,0.015
		C202.789,100.68,202.506,101.05,202.229,101.424z M210.111,89.614c-1.303,2.798-3.13,5.303-5.312,7.426
		c-0.087,0.048-0.148,0.118-0.193,0.197c-2.407,2.292-5.24,4.117-8.334,5.307c-0.107-0.072-0.247-0.101-0.412-0.049
		c-0.376,0.118-0.678,0.301-0.929,0.527c-2.134,0.679-4.37,1.067-6.655,1.105c-5.447,0.093-11.566-1.813-15.437-5.73
		c-2.341-2.37-3.115-5.485-4.033-8.571c-0.851-2.859-2.283-5.241-4.364-7.364c-0.231-0.236-0.451-0.477-0.659-0.721
		c0.296-0.282-0.093-0.694-0.442-0.561c-2.746-3.614-3.116-8.064-1.168-12.377c1.576-3.488,4.762-6.103,7.66-8.47
		c0.002-0.002,0.003-0.004,0.005-0.006c1.266-0.505,2.517-1.102,3.842-1.443c3.85-0.99,7.57-1.189,11.521-0.923
		c6.959,0.469,14.307,2.336,19.815,6.788C212.612,70.888,214.126,80.991,210.111,89.614z"/>
	<g>
		<path d="M186.616,86.884c-2.536-2.201-5.826-3.329-8.447-5.44c-1.383-1.114-2.548-2.562-2.699-4.384
			c-0.142-1.717,0.933-3.536,2.423-4.712c-0.89,0.908-1.596,2.043-1.991,3.125c-0.042,0.115,0.124,0.166,0.186,0.078
			c1.051-1.491,2.132-2.797,3.503-4c0.42-0.369,0.505-0.181,0.919-0.088c-0.009,0.008-0.018,0.012-0.027,0.021
			c-0.022,0.021,0.011,0.011,0.033-0.01c0.004-0.003,0.008-0.006,0.012-0.01c0.251,0.037,1.104-0.322,1.384-0.427
			c0.03,0.001,0.056,0,0.087,0c0.076,0.002,0.076-0.109,0-0.106c-0.148,0.006-0.289,0.021-0.423,0.04
			c-0.007-0.027-0.021-0.049-0.054-0.057c-4.209-0.927-8.516,4.003-6.528,8.111c1.973,4.077,7.415,6.663,11.461,8.133
			C186.609,87.213,186.738,86.99,186.616,86.884z"/>
		<path d="M181.151,71.078c-0.011,0-0.022,0.002-0.033,0.002c-0.084,0.034-0.167,0.076-0.249,0.128
			C180.962,71.158,181.055,71.111,181.151,71.078z"/>
	</g>
	<path d="M194,88.738c-1.128-0.019-2.02,0.479-3.2,0.177c-1.289-0.33-2.141-1.337-2.816-2.408c0.66,0.596,1.323,1.166,2.167,1.174
		c0.05,0.116,0.098,0.237,0.137,0.377c0.019,0.069,0.08,0.14,0.153,0.153c0.991,0.184,2.046,0.463,3.059,0.397
		c0.117-0.008,0.157-0.192,0.029-0.215c-0.634-0.115-1.218-0.311-1.836-0.482c-0.47-0.131-0.768-0.128-1.075-0.344
		c0.032-0.059,0.04-0.129-0.01-0.176c-0.68-0.635-1.467-1.199-2.182-1.801c-0.752-0.634-1.464-0.9-2.426-0.798
		c-0.215,0.022-0.302,0.359-0.055,0.407c0.599,0.115,1.106,0.488,1.592,0.91c-0.253-0.016-0.519,0.193-0.429,0.499
		c0.454,1.535,1.655,2.603,3.096,3.209c1.184,0.499,3.267,0.526,4.022-0.685C194.333,88.96,194.193,88.742,194,88.738z"/>
	<path d="M198.562,83.332c-0.586-3.407-3.827-5.509-5.535-8.277c-2.409-3.906-11.167-7.907-15.162-4.689
		c-0.167,0.135,0.021,0.345,0.186,0.32c5.1-0.786,9.015,0.741,13.136,3.708c1.124,0.81,2.231,1.588,2.988,2.769
		c0.655,1.021,1.224,2.077,1.963,3.05c1.953,2.574,2.449,5.854-0.849,7.428c-0.425,0.203-0.118,0.941,0.322,0.764
		C197.936,87.468,198.992,85.836,198.562,83.332z"/>
	<path d="M180.889,71.435c-1.195,1.787-3.469,3.714-2.994,6.094c0.022,0.109,0.183,0.099,0.211,0
		c0.324-1.155,0.717-2.186,1.362-3.203c0.584-0.92,1.246-1.775,1.657-2.792C181.182,71.392,180.965,71.32,180.889,71.435z"/>
	<path d="M189.527,84.902c-1.624-0.623-3.2-1.253-3.927-2.96c-0.016-0.036-0.063-0.057-0.1-0.057
		c-1.069-0.017-1.388-0.31-1.384-1.385c0-0.11-0.123-0.142-0.198-0.082c-0.339,0.271-0.787,0.44-1.232,0.597
		c0.497-0.65,0.9-1.35,1.27-2.092c0.084-0.041,0.066-0.031,0.002-0.005c0.057-0.115,0.117-0.226,0.172-0.342
		c0.073-0.152-0.105-0.301-0.235-0.182c-0.969,0.886-2.028,1.268-3.257,1.281c0.518-0.843,0.814-1.797,1.485-2.553
		c0.135-0.152-0.032-0.353-0.209-0.271c-0.56,0.258-1.16,0.397-1.754,0.556c0.346-0.813,0.725-1.58,1.495-2.144
		c0.313-0.229,0.049-0.707-0.308-0.526c-1.287,0.65-1.844,1.811-2.212,3.162c-0.088,0.325,0.268,0.592,0.557,0.429
		c0.429-0.242,0.864-0.45,1.305-0.666c-0.438,0.678-0.729,1.441-1.241,2.093c-0.216,0.275-0.021,0.645,0.337,0.58
		c1.067-0.194,2.05-0.478,3.011-0.978c0.129-0.067,0.238-0.123,0.335-0.173c-0.45,0.783-0.973,1.492-1.593,2.162
		c-0.174,0.188,0.043,0.451,0.265,0.344c1.158-0.557,1.871-1.482,1.708,0.311c-0.009,0.094,0.089,0.188,0.182,0.182
		c1.508-0.109,1.587,0.558,2.443,1.483c0.799,0.863,1.914,1.226,3.03,1.434C189.603,85.122,189.649,84.949,189.527,84.902z"/>
</g>
<g>
	<g>
		<g>
			<path fill="#EF5252" d="M169.248,226.944c0.449,2.827,0.396,5.846,1.015,8.621c0.052,0.232,0.427,0.239,0.475,0
				c0.553-2.785-0.467-6.027-0.985-8.76C169.689,226.471,169.196,226.617,169.248,226.944L169.248,226.944z"/>
		</g>
	</g>
	<g>
		<g>
			<path fill="#EF5252" d="M171,220.586c-2.523,0.015-1.873,9.609-1.192,11.151c0.075,0.17,0.38,0.132,0.407-0.053
				c0.247-1.669,0.057-3.394,0.07-5.077c0.011-1.298-0.332-4.8,0.831-5.741C171.231,220.772,171.133,220.585,171,220.586
				L171,220.586z"/>
		</g>
	</g>
	<g>
		<g>
			<path fill="#EF5252" d="M172.14,219.765c-0.717,0.926-0.566,2.395-0.491,3.497c0.088,1.289,0.162,2.816,0.804,3.964
				c0.083,0.15,0.321,0.118,0.364-0.048c0.292-1.133-0.014-2.358-0.123-3.501c-0.118-1.238,0.095-2.46,0.013-3.676
				C172.69,219.747,172.335,219.514,172.14,219.765L172.14,219.765z"/>
		</g>
	</g>
	<g>
		<g>
			<path fill="#EF5252" d="M170.484,223.155c0.327-0.791,0.309-1.44,0.186-2.271c-0.071-0.478-0.702-0.347-0.84,0
				c-0.783,1.966-0.439,4.298-0.428,6.366c0.005,0.771,1.188,0.771,1.195,0c0.016-1.779,0.08-3.553-0.381-5.288
				c-0.131-0.495-0.876-0.627-1.122-0.146c-0.838,1.635-0.666,3.601-0.327,5.352c0.113,0.589,1.126,0.617,1.214,0
				c0.334-2.34,0.261-4.686,0.252-7.042c-0.003-0.786-1.221-0.786-1.219,0c0.004,1.43,0.086,2.751,0.71,4.057
				c0.21,0.44,0.815,0.347,1.049,0c0.729-1.083-0.088-2.969,0.903-3.754c-0.336-0.089-0.673-0.178-1.01-0.267
				c0.331,0.804,0.74,1.448,1.407,2.015c0.341,0.29,0.873,0.194,1.006-0.266c0.106-0.364,0.13-0.533,0.146-0.91
				c-0.401,0-0.802,0-1.203,0c0.122,1,0.191,1.998,0.281,3c0.065,0.726,1.103,0.743,1.141,0c0.051-1.006-0.094-2.003-0.219-3
				c-0.094-0.752-1.17-0.795-1.203,0c-0.035,0.197-0.069,0.393-0.104,0.59c0.335-0.088,0.671-0.177,1.006-0.266
				c-0.501-0.428-0.84-0.866-1.093-1.485c-0.183-0.446-0.63-0.566-1.01-0.267c-1.362,1.076-0.258,2.754-1.097,3.996
				c0.35,0,0.699,0,1.049,0c-0.521-1.097-0.537-2.254-0.54-3.443c-0.406,0-0.813,0-1.219,0c0.008,2.242,0.1,4.483-0.248,6.708
				c0.405,0,0.809,0,1.214,0c-0.25-1.397-0.489-3.078,0.173-4.398c-0.374-0.049-0.748-0.098-1.122-0.146
				c0.447,1.625,0.375,3.293,0.369,4.962c0.398,0,0.797,0,1.195,0c-0.025-2.103-0.02-4.152,0.088-6.25
				c-0.218,0.125-0.437,0.25-0.655,0.376c0.48,0.584,0.559,1.157,0.235,1.719C170.213,223.233,170.43,223.287,170.484,223.155
				L170.484,223.155z"/>
		</g>
	</g>
	<g>
		<g>
			<path fill="#EF5252" d="M170.45,223.104c-0.011-0.039-0.022-0.077-0.034-0.115c-0.012-0.041-0.071-0.041-0.083,0
				c-0.011,0.039-0.022,0.077-0.034,0.115C170.263,223.23,170.487,223.23,170.45,223.104L170.45,223.104z"/>
		</g>
	</g>
	<path fill="#EF5252" d="M185.194,231.095c-0.045,0.008-0.084,0.025-0.128,0.035c-0.003-0.127-0.047-0.25-0.123-0.358
		c0.012-0.014,0.025-0.027,0.037-0.041c0.404-0.475,0.112-1.067-0.418-1.139c0.05-0.422-0.394-0.827-0.868-0.747
		c-0.189,0.032-0.37,0.078-0.547,0.134c-0.158-0.196-0.415-0.321-0.703-0.259c-0.653,0.14-1.225,0.428-1.783,0.743
		c-0.012,0-0.024-0.004-0.036-0.003c-0.921,0.082-1.696,0.419-2.43,0.832c-0.181-0.203-0.466-0.299-0.779-0.113
		c-1.034,0.618-2.125,1.24-2.987,2.083c-0.007,0.007-0.015,0.012-0.022,0.019c-0.003,0.003-0.004,0.007-0.007,0.01
		c-0.01,0.009-0.02,0.019-0.029,0.028c0.047-0.117,0.075-0.243,0.053-0.38c-0.169-1.022-0.664-1.74-1.296-2.54
		c-0.023-0.306-0.044-0.611-0.072-0.916c0.078-0.089,0.134-0.203,0.137-0.358c0.039-2.051,0.092-4.104-0.445-6.098
		c0-0.006-0.001-0.012-0.002-0.018c0.023-0.868,0.053-1.697-0.136-2.553c-0.086-0.391-0.594-0.59-0.928-0.377
		c-0.112,0.071-0.195,0.133-0.282,0.198c-0.449-0.305-0.96-0.329-1.42-0.091c-0.234-0.022-0.487,0.051-0.639,0.251l-0.075,0.098
		c-0.064,0.013-0.128,0.035-0.19,0.077c-1.671,1.158-0.851,4.808,0.122,6.377c-0.047,0.911-0.009,1.811,0.073,2.706
		c-0.061,0.069-0.109,0.151-0.124,0.263c-0.008,0.063-0.011,0.124-0.019,0.186c-0.142,0.104-0.249,0.262-0.258,0.48
		c-0.048,1.083,0.067,2.104,0.25,3.168c0.146,0.851,0.172,1.707,0.289,2.55c-0.272-0.094-0.627-0.037-0.819,0.218
		c-0.117,0.155-0.21,0.32-0.313,0.481c-0.082,0.001-0.162,0.015-0.24,0.042c-0.232-0.101-0.526-0.089-0.732,0.093
		c-0.505,0.446-0.921,0.947-1.306,1.471c0.003-0.091,0.011-0.179,0.003-0.274c-0.042-0.495-0.675-0.889-1.067-0.442
		c-0.044,0.051-0.081,0.11-0.122,0.165c-0.139-0.25-0.457-0.39-0.732-0.33c-0.079-0.065-0.166-0.114-0.259-0.139
		c0.017-0.085,0.048-0.165,0.056-0.254c0.052-0.569-0.705-0.794-1.068-0.442c-0.267,0.258-0.499,0.541-0.719,0.832
		c-0.159-0.356-0.711-0.517-1.027-0.203c-0.12,0.119-0.23,0.273-0.337,0.446c-0.009-0.564-0.874-0.916-1.128-0.316
		c-0.018,0.042-0.036,0.089-0.054,0.133c-0.251-0.23-0.696-0.24-0.943,0.119c-0.017,0.024-0.029,0.05-0.046,0.075
		c-0.083-0.426-0.817-0.651-1.03-0.171c-0.002-0.033-0.001-0.063-0.004-0.097c-0.018-0.203-0.166-0.41-0.395-0.395
		c-0.125,0.008-0.25,0.016-0.375,0.024c-0.478,0.03-0.478,0.712,0,0.742c-0.093,0.546-0.208,1.087-0.346,1.624
		c-0.051,0.215,0.061,0.434,0.232,0.548c-0.029,0.276-0.024,0.563,0.029,0.868c0.047,0.272,0.265,0.396,0.5,0.415
		c-0.001,0.004-0.003,0.008-0.004,0.012c-0.167,0.529,0.444,0.938,0.896,0.689c0.03-0.017,0.054-0.039,0.083-0.056
		c0.144,0.189,0.386,0.302,0.647,0.248c0.185-0.038,0.339-0.11,0.491-0.184c0.221,0.221,0.627,0.264,0.911,0.031
		c0.132-0.108,0.249-0.227,0.367-0.344c0.136,0.334,0.552,0.523,0.883,0.319c0.233-0.144,0.443-0.307,0.644-0.479
		c0.053,0.038,0.112,0.064,0.175,0.079c-0.032,0.141,0.009,0.278,0.09,0.39c0.131,0.26,0.403,0.417,0.714,0.31
		c0.162,0.15,0.384,0.233,0.61,0.167c1.466-0.426,2.775-1.105,4.102-1.818c0.165,0.067,0.358,0.067,0.535-0.034
		c0.422-0.242,0.755-0.544,1.043-0.883c0.07-0.038,0.143-0.073,0.211-0.112c0.076,0.071,0.167,0.128,0.269,0.158
		c0.096,1.792,0.344,3.567,0.76,5.309c-0.05,0.796,0.009,1.626,0.101,2.417c-0.011,0.118-0.025,0.236-0.033,0.354
		c-0.092,0.812-0.099,1.623-0.028,2.476c0.025,0.31,0.313,0.634,0.628,0.635c-0.003,0.039-0.009,0.076-0.012,0.115
		c-0.039,0.491,0.394,0.658,0.768,0.561c0.101,0.373,0.559,0.523,0.899,0.358c0.211,0.213,0.581,0.246,0.838,0.054
		c0.189,0.045,0.396,0.005,0.555-0.163c0.032-0.034,0.056-0.068,0.086-0.102c0.114,0.024,0.232,0.013,0.345-0.035
		c0.169,0.097,0.374,0.116,0.565-0.022c0.701-0.508,1.078-1.184,1.28-1.974c0.053-0.155,0.083-0.32,0.131-0.639
		c0.001-0.01-0.002-0.017-0.001-0.027c0.563-1.924,0.783-3.926,0.726-5.937c-0.052-1.843-0.588-3.628-1.105-5.419
		c1.121-0.341,2.104-0.935,3.092-1.526c0.162,0.156,0.388,0.236,0.626,0.151c0.667-0.239,1.249-0.595,1.812-0.985
		c0.043,0.007,0.087,0.014,0.132,0.009c0.27-0.031,0.51-0.097,0.732-0.188c0.19,0.095,0.414,0.108,0.611-0.029
		c0.935-0.654,0.25-0.581,0.964-1.479C184.734,232.447,185.893,230.963,185.194,231.095z M171.058,221.75
		c0.003,0.47,0.114,0.939,0.124,1.409c-0.168,0.018-0.271,0.12-0.315,0.339c-0.13,0.648-0.232,1.36-0.311,2.09
		c-0.078-0.12-0.155-0.24-0.258-0.354c0.036-0.181-0.021-0.4-0.201-0.487c-0.033-0.016-0.065-0.032-0.097-0.048
		c-0.178-0.087-0.352-0.076-0.488,0.003c-0.176-1.284-0.386-2.966-0.083-3.728c0.109-0.004,0.213-0.043,0.303-0.12
		c0.217-0.002,0.438-0.093,0.564-0.286c0.176-0.041,0.352-0.081,0.528-0.122c0.143,0.204,0.173,0.304,0.395,0.296
		c-0.011,0.043-0.219,0.083-0.219,0.131v0.499C171,221.471,171.057,221.59,171.058,221.75z M172.933,248.171
		c-0.071-0.022-0.145-0.038-0.219-0.037c0.007-0.086,0.019-0.172,0.025-0.259c0.018-0.244-0.096-0.408-0.255-0.501
		c0.071-0.089,0.117-0.203,0.12-0.349c0.167-0.061,0.299-0.199,0.338-0.406c0.021,0.018,0.04,0.039,0.062,0.055
		C172.956,247.168,172.932,247.667,172.933,248.171z M175.275,241.774c-0.009,0.021-0.019,0.042-0.028,0.062
		c0.104-0.522,0.203-1.045,0.286-1.571c0.006,0.022,0.014,0.044,0.02,0.067c0.103,0.362,0.186,0.729,0.258,1.099
		C175.597,241.429,175.39,241.524,175.275,241.774z"/>
	<g>
		<path d="M163.348,239.884c0.002-0.002,0.002-0.004,0.004-0.005c-0.001-0.004-0.004-0.007-0.005-0.011
			C163.346,239.873,163.346,239.877,163.348,239.884z"/>
		<path d="M184.505,227.995c-0.208-0.251-0.601-0.253-0.865-0.112c-3.184,1.695-7.528,0.756-10.143,3.614
			c-0.419,0.458-0.089,1.058,0.358,1.191c-0.904,0.562-1.592,1.588-2.144,2.416c-0.536,0.803-1.262,1.901-1.678,3.009
			c-0.186,0.01-0.378,0.14-0.421,0.347c-1.081,0.858-2.208,1.308-3.408,1.605c0.209-0.208,0.345-0.294,0.477-0.613
			c0.173-0.417,0.371-0.82,0.575-1.223c0.447-0.472,0.865-0.971,1.25-1.495c0.155-0.006,0.31-0.014,0.465-0.017
			c-0.132,0.585-0.216,1.179-0.199,1.782c0.008,0.272,0.351,0.287,0.445,0.06c1.123-2.702,2.101-5.057,4.03-7.312
			c0.293-0.343-0.158-0.803-0.497-0.497c-1.109,1-2.154,2.25-2.898,3.634c-0.017-0.092-0.037-0.184-0.052-0.276
			c0.917-1.816,1.893-3.622,2.511-5.523c0.114-0.35-0.421-0.575-0.592-0.25c-0.654,1.24-1.487,2.516-2.163,3.843
			c-0.036-0.39-0.067-0.78-0.099-1.17c0.754-2.603,1.542-5.417,3.542-7.096v0.015c0,1.974-1.078,4.96,0.299,6.666
			c0.173,0.215,0.451,0.214,0.673,0.095c0.01,0.011-0.012,0.022-0.001,0.033c0.225,0.067,0.367-0.223,0.208-0.385
			c0.174,0.179-0.198-0.813-0.266-1.071c-0.191-0.725-0.111-1.561-0.07-2.298c0.099-1.779,0.388-3.542,0.351-5.328
			c-0.081-3.924-2.994-4.227-6.046-2.743c-0.548,0.266-0.398,0.886,0.001,1.151c-0.533,3.748-0.612,7.862-0.126,11.76
			c-0.168,0.752-0.254,1.499-0.18,2.193c0.016,0.146,0.208,0.225,0.291,0.079c0.064-0.112,0.121-0.231,0.18-0.348
			c0.068,0.384,0.148,0.762,0.227,1.14c-0.034,0.149-0.078,0.297-0.103,0.448c-4.149,0.049-8.289,0.379-12.439,0.383
			c-0.322,0-0.719,0.24-0.77,0.586c-0.595,4.064,0.587,6.895,5.071,6.391c2.298-0.258,4.706-0.698,6.964-1.192
			c0.771-0.169,1.619-0.449,2.325-0.887c0.097,1.622,0.359,3.248,0.212,4.896c-0.132,1.486-0.61,3.531,0.169,4.933
			c1.092,1.964,4.279,2.42,6.036,1.035c3.696-2.915,2.661-10.42,0.809-14.333c2.627-0.029,5.342-1.345,7.575-2.483
			c1.478-0.753,1.312-1.157,1.392-2.776C185.858,230.364,185.457,229.145,184.505,227.995z M172.165,219.583
			c0.177,0.14,0.325,0.338,0.43,0.618c0.364,0.976,0.279,2.149,0.192,3.208c-0.971,0.38-1.674,1.2-2.224,2.134
			C171.048,223.551,171.42,221.526,172.165,219.583z M170.921,220.312c0.019,0.006,0.037,0.013,0.056,0.015
			c-1.039,2.434-1.679,5.221-1.653,7.805c-0.044,0.102-0.087,0.199-0.132,0.304c-0.035-1.251-0.04-2.503-0.064-3.757
			c0.576-0.374,0.721-1.789,0.917-2.381c0.178-0.539,0.369-1.07,0.592-1.592C170.694,220.57,170.813,220.437,170.921,220.312z
			 M170.104,219.562c-0.565,0.558-0.832,1.631-1.04,2.279c-0.011,0.034-0.028,0.084-0.042,0.125
			c-0.041-0.621-0.093-1.242-0.169-1.863C169.2,219.94,169.642,219.726,170.104,219.562z M161.779,238.163
			c0.277-0.262,0.479-0.575,0.764-0.833c0.193-0.175,0.421-0.275,0.658-0.344c0.214-0.012,0.428-0.022,0.642-0.034
			c-0.055,0.04-0.109,0.072-0.164,0.114c-0.756,0.588-1.374,1.44-1.792,2.368c-0.02-0.141-0.071-0.28-0.203-0.411
			c-0.17-0.17-0.384-0.225-0.601-0.206c0.019-0.095,0.029-0.189,0.039-0.317c0.007-0.108-0.136-0.156-0.207-0.085
			c-0.071,0.07-0.157,0.134-0.237,0.2c0.157-0.21,0.314-0.415,0.478-0.606C161.255,238.267,161.568,238.362,161.779,238.163z
			 M158.264,241.162c-1.846-0.262-1.76-2.375-1.57-3.886c0.218-0.005,0.435-0.021,0.653-0.027c-0.086,0.2-0.166,0.411-0.231,0.645
			c-0.101,0.356,0.283,0.603,0.587,0.452c0.03-0.015,0.05-0.035,0.078-0.051c0.08,0.062,0.188,0.096,0.322,0.074
			c0.188-0.03,0.388-0.085,0.583-0.128c-0.405,0.601-0.384,1.342-0.092,1.999c0.176,0.397,0.754,0.242,0.863-0.113
			c0.097-0.315,0.359-0.576,0.659-0.813c0.046-0.014,0.085-0.043,0.119-0.082c-0.023,0.059-0.048,0.117-0.064,0.178
			c-0.059,0.228,0.108,0.417,0.331,0.434c0.161,0.012,0.279-0.002,0.438-0.027c0.099-0.016,0.136-0.021,0.152-0.028
			c0.071,0.109,0.142,0.218,0.214,0.327c0.074,0.112,0.199,0.111,0.301,0.051c-0.083,0.254-0.155,0.51-0.205,0.766
			C160.365,241.13,159.325,241.312,158.264,241.162z M164.244,240.44c-0.627,0.102-1.273,0.2-1.948,0.32
			c-0.018,0.003-0.035,0.007-0.052,0.01c0.605-0.917,1.249-2.012,2.042-2.761c-0.364,0.452-0.665,0.964-0.89,1.482
			c-0.049,0.112-0.085,0.252-0.049,0.376c-0.001-0.047,0.051-0.038,0.016-0.006c-0.006,0.005-0.005,0.012-0.01,0.017
			c0.01,0.032,0.022,0.063,0.044,0.092c-0.029-0.038-0.042-0.065-0.048-0.086c-0.09,0.108-0.016,0.255,0.101,0.304
			c0.059,0.025,0.364,0.052,0.23,0c0.156,0.061,0.348-0.013,0.461-0.122c0.1-0.096,0.19-0.204,0.28-0.311
			C164.309,239.978,164.241,240.207,164.244,240.44z M177.1,243.788c0.041,0.707,0.017,1.404-0.039,2.088
			c-0.028-0.016-0.062-0.023-0.099-0.012c-0.785,0.238-1.36,0.548-1.898,1.179c-0.338,0.396-0.649,0.818-0.968,1.229
			c-0.298,0.384-0.645,0.704-0.788,1.176c-0.043,0.14,0.101,0.293,0.245,0.245c0.754-0.253,1.226-1.095,1.682-1.71
			c0.485-0.655,1.046-1.484,1.802-1.838c-0.119,1.159-0.372,2.261-0.828,3.203c-0.467,0.963-1.306,1.546-2.364,1.666
			c-2.44,0.276-3.132-1.513-3.046-3.575c0.068-1.625,0.097-3.133,0.043-4.639c0.524-1.003,0.934-2.057,1.482-3.051
			c0.663-1.202,1.461-2.324,2.313-3.399c-0.084,0.207-0.016,0.472,0.256,0.546c0.147,0.041,0.296,0.07,0.445,0.1
			c-0.004,0.111,0.012,0.227,0.077,0.348c0.029,0.054,0.052,0.119,0.08,0.173c-1.33,0.826-2.266,2.265-3.01,3.601
			c-0.75,1.345-1.849,3.448-1.172,4.993c0.066,0.151,0.306,0.134,0.378,0c0.138-0.258,0.249-0.53,0.356-0.804
			c-0.37,0.916-0.569,1.895-0.245,2.749c0.031,0.081,0.113,0.136,0.197,0.146c-0.237,0.649-0.353,1.3-0.204,1.856
			c0.039,0.146,0.253,0.222,0.359,0.095c0.717-0.863,0.948-2.159,1.492-3.149c0.749-1.363,1.917-2.718,3.438-3.206
			C177.089,243.795,177.093,243.791,177.1,243.788z M175.923,238.444c0.215,0.518,0.396,1.077,0.559,1.65
			c-0.029,0.005-0.057,0.005-0.089,0.018c-1.485,0.609-2.519,1.987-3.353,3.307c-0.292,0.462-0.617,1.015-0.881,1.604
			c0.354-0.976,0.6-2.01,1.048-2.947C173.857,240.72,174.741,239.394,175.923,238.444z M177.061,243.207
			c-0.043-0.011-0.09-0.014-0.143-0.004c-1.496,0.27-2.545,1.255-3.443,2.425c-0.218,0.284-0.467,0.64-0.71,1.032
			c0.292-0.792,0.572-1.587,0.982-2.34c0.727-1.333,1.707-2.561,2.938-3.456C176.862,241.625,176.988,242.414,177.061,243.207z
			 M184.307,232.983c-0.026,0.454-1.92,1.137-2.283,1.313c-1.716,0.831-3.551,1.392-5.434,1.646c0.409-0.694,0.791-1.4,1.193-2.104
			c0.506-0.884,1.144-1.703,1.581-2.625c0.195-0.411-0.32-0.886-0.663-0.511c-1.26,1.377-2.737,3.358-2.896,5.313
			c-0.269,0.023-0.535,0.065-0.806,0.075c-0.105,0.004-0.189,0.044-0.254,0.102c0.204-0.313-0.165-0.681-0.472-0.418
			c-1.358,1.157-2.871,3.012-3.579,4.929c-0.034-0.329-0.056-0.654-0.102-0.99c0.201-0.271,0.335-0.586,0.421-0.931
			c0.331-0.722,0.615-1.48,0.977-2.157c0.367-0.688,0.777-1.427,1.261-2.106c-0.09,0.378-0.109,0.744,0.018,1.045
			c0.074,0.176,0.247,0.223,0.398,0.105c0.633-0.493,0.792-1.628,1.153-2.326c0.446-0.861,1.3-1.833,2.213-2.214
			c0.095-0.04,0.105-0.131,0.066-0.194c2.118-0.698,4.644-0.696,6.672-1.541C184.482,230.505,184.38,231.683,184.307,232.983z"/>
	</g>
	<path d="M182.5,230.545c-0.499,0.029-1,0.027-1.5,0.037c-0.252,0.005-0.382,0.187-0.398,0.379c-0.375,0.136-0.654,0.513-0.88,0.841
		c-0.316,0.458-0.559,0.957-0.792,1.461c-0.152,0.33-0.471,0.921-0.261,1.278c0.534,0.911,1.136-0.747,1.268-1.088
		c0.201-0.522,0.433-1.042,0.692-1.538c0.067-0.127,0.127-0.347,0.203-0.535c0.049,0.021,0.104,0.036,0.168,0.037
		c0.172,0.003,0.344,0.01,0.517,0.013c-0.535,0.778-0.899,1.808-0.739,2.63c0.03,0.152,0.216,0.204,0.338,0.138
		c0.459-0.246,0.667-0.76,0.826-1.229c0.222-0.653,0.539-1.192,0.951-1.741C183.099,230.956,182.822,230.526,182.5,230.545z"/>
</g>
<g>
	<path fill="#73AD7C" d="M236.323,232.081c0.042-0.519-0.09-1.055-0.256-1.543c-0.03-0.088-0.087-0.145-0.152-0.18
		c0.286-0.4,0.186-1.053,0.219-1.531c0.027-0.391,0.013-0.753-0.046-1.14c-0.052-0.342-0.272-0.604-0.425-0.907
		c-0.062-0.121-0.264-0.124-0.324,0c-0.337,0.693-0.46,1.171-0.337,1.953c0.084,0.537,0.011,1.367,0.448,1.746
		c-0.034,0.064-0.046,0.142-0.015,0.233c0.183,0.539,0.237,1.1,0.382,1.647c0.128,0.483,0.102,1.001,0.323,1.455
		c0.059,0.12,0.239,0.057,0.24-0.065C236.387,233.186,236.276,232.651,236.323,232.081z"/>
	<path fill="#548E5F" d="M236.636,224.522c-1.216-1.61-3.298-1.229-3.915,0.466c-0.404-2.481-0.792-5.079-2.431-6.904
		c-0.211-0.235-0.532-0.333-0.848-0.317c-0.46-0.407-1.274-0.438-1.76-0.003c-1.411,1.261-0.165,3.905,0.407,5.303
		c0.514,1.257,0.984,2.528,1.441,3.807c0.012,0.072,0.028,0.143,0.04,0.214c0.105,0.633,0.257,1.256,0.422,1.876
		c-0.725,0.649-0.754,2.181-0.624,3.087c0.169,1.177,0.298,2.327,0.368,3.512c-0.172-0.306-0.353-0.607-0.526-0.9
		c-0.179-0.431-0.362-0.86-0.563-1.283c-0.519-1.089-2-2.518-2-3.756c0-0.621-0.429-0.992-0.916-1.087
		c-0.001-0.013-0.006-0.026-0.006-0.038c-0.001-0.127-0.029-0.246-0.071-0.357c-0.02-0.545-0.153-1.075-0.528-1.521
		c-0.493-0.585-1.501-0.521-2.005,0c-0.704,0.727-0.904,2.19-0.948,3.176c-0.045,1.005,0.753,2.421,1.837,2.574
		c0.195,0.349,0.401,0.686,0.596,1.003c0.759,1.236,1.568,3.438,2.737,4.913c0.314,0.756,0.655,1.503,1.013,2.245
		c-0.248,2.274-1.271,4.667-1.076,6.951c0.033,0.385,0.213,0.694,0.458,0.921c0.41,0.947,1.757,1.131,2.382,0.303
		c0.478-0.136,0.895-0.489,1.034-1.057c0.487-0.528,0.807-1.14,1.006-1.796c0.19-0.204,0.389-0.406,0.586-0.606
		c1.786-0.483,2.949-2.207,3.642-4.117c0.556-0.548,1.057-1.113,1.298-1.938c0.568-1.945,0.587-3.936,0.734-5.944
		C238.638,230.293,238.5,226.991,236.636,224.522z"/>
	<path fill="#EA9611" d="M234.465,247.25c-0.011-0.967-1.17-1.42-1.86-0.771c-0.126,0.119-0.239,0.314-0.346,0.427
		c-0.004,0-0.007,0.026-0.011,0.051c-0.002-0.016-0.004-0.032-0.007-0.029c-0.056,0.007-0.118-0.032-0.204-0.022
		c-0.547,0.15-0.862,0.58-1.172,1.017c-0.259,0.365-0.447,0.774-0.552,1.212c-0.58-0.333-1.352-0.466-1.938-0.48
		c-0.234-0.005-0.439,0.034-0.616,0.11c0.012-0.157,0.034-0.313,0.089-0.473c0.046-0.18,0.016-0.332-0.053-0.454
		c0.01-0.204,0.015-0.408,0.015-0.613c0.018-0.107,0.033-0.214,0.043-0.321c0.117-0.464,0.143-0.926,0.145-1.404
		c0-0.149-0.061-0.281-0.154-0.385c-0.108-0.475-0.69-0.588-1.012-0.325c-0.034-0.001-0.067,0.001-0.101,0.005
		c-0.223-0.142-0.491-0.244-0.744-0.154c-0.121,0.043-0.231,0.09-0.339,0.158c-0.261-0.219-0.715-0.163-0.905,0.14
		c-0.296-0.221-0.815-0.157-0.927,0.282c-0.149,0.585-0.375,1.126-0.479,1.714c-0.004,0.013-0.01,0.025-0.014,0.038
		c-0.03,0.083-0.036,0.16-0.029,0.232c-0.001,0.016-0.005,0.03-0.007,0.045c-0.013,0.153,0.033,0.271,0.108,0.362
		c-0.516,0.737-0.888,1.638-1.119,2.533c-1.671,1.217-2.539,3.797-2.737,6.133c-0.207,0.838-0.324,1.68-0.384,2.389
		c-0.173,2.033,0.357,4.538,1.813,6.026c0.038,0.039,0.087,0.068,0.128,0.104c-0.084,0.67-0.102,1.348-0.001,1.977
		c-0.012,0.021-0.027,0.038-0.039,0.061c-0.17,0.337-0.328,0.679-0.48,1.023c-1.104,1.205-1.933,2.773-2.359,4.355
		c-2.017,1.791-3.472,5.354-2.436,7.508c-0.025,0.132-0.05,0.264-0.068,0.401c-0.019,0.148-0.031,0.305-0.04,0.465
		c-0.401,0.938-0.39,2.241-0.1,3.236c0.004,0.046,0.017,0.088,0.022,0.133c-0.116,0.329-0.172,0.63-0.172,1.044
		c0,1.453,2.372,1.861,2.601,0.352c0.281-1.852,1.689-3.285,2.609-4.848c0.018-0.03,0.04-0.066,0.059-0.097
		c0.309-0.286,0.621-0.658,0.917-1.071c0.314-0.01,0.638-0.146,0.932-0.457c1.577-1.665,3.029-4.421,3.357-6.933
		c0.915-1.26,1.118-3.094,1.203-4.696c0.084-1.575,0.134-2.815-0.236-4.222c0.562-0.958,0.939-2.034,1.156-3.162
		c0.218-1.137,0.418-2.222,0.423-3.265c0.545-0.511,1.081-1.031,1.563-1.591c0.396-0.459,0.664-0.979,0.905-1.509
		c0.519-0.425,0.978-0.837,1.303-1.157c0.468-0.458,0.587-0.988,0.486-1.469c0.011-0.013,0.019-0.027,0.03-0.041
		c0.664-0.325,1.011-0.754,1.324-1.472c0.154-0.353,0.243-0.706,0.337-1.077C234.489,247.925,234.469,247.594,234.465,247.25z"/>
	<path d="M231.466,237.179c-0.48-2.732-2.81-4.333-3.679-6.838c-0.653-1.882-0.741-3.56-2.921-4.178
		c-3.992-1.134-3.231,3.71-2.067,5.907c1.367,2.579,3.488,4.698,4.602,7.417c1.161,2.836,0.2,6.061,0.389,9.014
		c0.014,0.224,0.377,0.304,0.415,0.056c0.515-3.426,1.683-6.765,0.111-10.143c-1.491-3.205-5.693-6.707-5.133-10.499
		c0.938-0.504,1.741-0.435,2.409,0.208c0.195,0.447,0.36,0.905,0.495,1.373c0.204,0.638,0.369,1.295,0.634,1.912
		c0.872,2.032,2.834,3.399,3.353,5.64c0.777,3.358,0.249,8.483-1.81,11.314c-0.19,0.263,0.21,0.53,0.43,0.332
		C231.644,246.017,232.122,240.903,231.466,237.179z"/>
	<path d="M237.262,224.002c-0.545-1.003-1.557-1.538-2.657-1.146c-0.917,0.326-1.494,0.998-1.852,1.801
		c-0.116-2.206-0.648-4.405-1.67-6.197c-0.571-1.001-2.535-3.398-3.667-1.545c-1.173,1.921-0.725,4.683-0.152,6.726
		c0.438,1.565,1.391,2.957,1.855,4.537c0.515,1.752-0.086,3.77,0.738,5.417c0.264,0.527,1.052,0.064,0.789-0.461
		c-0.402-0.804-0.095-2.701-0.091-3.633c0.004-0.9-0.438-1.965-0.719-2.814c-0.688-2.075-1.729-3.744-1.898-5.99
		c-0.07-0.918,0.001-1.841,0.258-2.726c0.53-1.828,2.834,3.228,2.833,3.226c0.916,2.736,0.015,5.639,0.685,8.384
		c0.07,0.288,0.498,0.28,0.572,0c0.024-0.092,0.038-0.191,0.061-0.285c0.281,2.186,1.01,4.373,1.542,6.449
		c1.051,4.092,0.153,8.16-3.135,11.011c-0.174,0.15-0.124,0.355,0.011,0.479c-0.488,0.825-0.857,1.709-1.029,2.694
		c-0.054,0.311,0.315,0.466,0.5,0.211c0.818-1.133,1.774-2.241,2.746-3.36c-0.047,1.183-0.296,2.443-1.351,3.131
		c-0.848,0.554-1.955,0.385-2.863,0.104c-1.603-0.495-3.445-1.988-1.669-3.414c0.118-0.095-0.012-0.262-0.137-0.235
		c-0.98,0.211-1.607,1.011-1.303,2.017c0.347,1.148,1.551,1.976,2.587,2.427c0.686,0.299,1.421,0.451,2.149,0.428
		c-1.188,0.35-2.456,0.321-3.631-0.216c-1.442-0.66-2.648-1.967-3.04-3.515c0.039-0.137,0.081-0.273,0.111-0.413
		c0.034-0.157-0.045-0.277-0.152-0.354c0.067-0.398,0.276-0.751,0.654-0.981c0.419-0.255,0.973-0.314,1.398-0.263
		c-0.024,0.048-0.037,0.102-0.003,0.152c0.081,0.116,0.15,0.24,0.208,0.371c0.026,0.065,0.117,0.056,0.123-0.017
		c0.039-0.527-0.106-0.229,0.438-0.229c0.234,0,0.431-0.28,0.521-0.467c0.157-0.33,0.047-0.799-0.36-0.885
		c-1.987-0.421-4.055,0.145-4.298,2.411c-0.044,0.413,0.012,0.814,0.109,1.208c-1.587,2.575-3.385,5.182-4.053,8.135
		c-0.853,3.77,2.47,6.46,1.92,10.072c-0.519,3.41-3.466,6.085-4.75,9.201c-1.468,3.562-1.604,7.215,0.118,10.726
		c0.109,0.222,0.326,0.209,0.473,0.091c0.224,0.203,0.481,0.354,0.754,0.453c-0.004,0.256-0.016,0.507,0.012,0.785
		c0.071,0.699,1.155,0.722,1.109,0c-0.242-3.811,3.369-6.205,5.257-9.188c2.035-3.214,3.678-6.879,4.254-10.656
		c0.511-3.35-0.135-6.684,1.327-9.863c0.811-1.762,2.173-2.963,3.588-4.224c0.9-0.802,1.483-1.729,1.383-2.918
		c1.43-1.476,2.479-4.059,0.488-5.472c2.24-2.663,4.248-5.485,4.447-8.951C239.019,232.411,239.14,227.462,237.262,224.002z
		 M217.015,285.821c-0.01-0.005-0.022-0.01-0.032-0.016c-0.83-0.466-0.862-1.39-0.712-2.23c0.043-0.24-0.229-0.422-0.409-0.315
		c-0.129-0.771-0.23-1.54-0.263-2.316c0.56,1.088,1.591,1.941,2.781,1.891C217.72,283.736,217.209,284.682,217.015,285.821z
		 M220.624,280.153c-0.603,0.722-1.213,1.388-1.761,2.061c-0.699-0.255-1.421-0.463-1.986-0.97
		c-0.642-0.577-0.938-1.409-1.037-2.244c-0.01-0.086-0.054-0.142-0.099-0.195c0.022-0.129,0.028-0.257,0.057-0.388
		c0.233-1.07,0.644-2.083,1.128-3.063c0.772,2.067,4.138,3.976,5.235,0.689c0.054-0.162-0.167-0.28-0.281-0.163
		c-0.929,0.952-2.036,1.184-3.141,0.326c-0.562-0.437-1.267-1.243-1.204-2.009c0.147-0.26,0.292-0.521,0.445-0.776
		c0.365-0.609,0.777-1.233,1.189-1.872c0.219,0.512,0.613,0.975,0.989,1.327c0.753,0.707,2.636,1.871,4.012,1.745
		C223.178,276.654,221.946,278.57,220.624,280.153z M229.593,254.593c-1.051,0.983-1.732,2.411-2.251,3.732
		c-1.089,2.768-0.641,5.675-0.935,8.675c-0.002,0-0.004,0-0.005,0c-1.437,1-2.743,0.632-4.104-0.175
		c-0.665-0.395-1.208,0.67-0.596,1.101c0.844,0.594,1.747,1.083,2.798,1.08c0.721-0.002,1.354-0.468,1.831-1.009
		c-0.002,0.014-0.003,0.039-0.005,0.053c-0.274,1.817-0.883,3.717-1.691,5.551c-0.366-0.097-0.763-0.144-1.112-0.225
		c-0.701-0.163-1.357-0.478-1.964-0.855c-0.558-0.347-1.067-0.82-1.393-1.393c-0.125-0.22-0.168-0.585-0.156-0.935
		c0.818-1.392,1.496-2.857,1.58-4.421c0.173-3.208-2.083-5.548-2.089-8.775c-0.006-2.824,2.169-5.172,3.486-7.692
		c0.738,1.233,1.994,2.254,3.12,2.841c2.013,1.049,4.442,0.715,6.357-0.418C231.699,252.833,230.647,253.605,229.593,254.593z
		 M234.095,248.115c-0.1,0.426-0.333,0.809-0.625,1.152c0.349-0.775,0.49-1.67,0.524-2.49
		C234.137,247.187,234.214,247.605,234.095,248.115z M237.527,236.557c-0.115,2.176-1.149,3.872-2.432,5.432
		c0.563-2.308,0.403-4.888-0.14-7.097c-0.626-2.546-1.379-5.102-1.423-7.742c-0.033-1.982,1.833-4.568,2.956-1.791
		C237.845,228.713,237.715,233,237.527,236.557z"/>
	<path d="M226.168,262.832c-0.747-0.632-1.903-0.999-2.819-1.322c-0.887-0.313-1.676,0.124-1.354,1.13
		c0.175,0.547,0.916,0.431,1.016-0.024c0.325,0.118,0.64,0.275,0.957,0.411c0.624,0.266,1.525,0.636,2.152,0.18
		C226.234,263.123,226.295,262.939,226.168,262.832z"/>
	<path d="M226.947,257.808c-1.839,0.332-3.559-0.981-5.294-1.362c-0.727-0.159-1.005,0.868-0.306,1.107
		c1.032,0.353,1.986,0.888,3.023,1.229c1.01,0.332,1.91,0.009,2.73-0.61C227.281,258.036,227.177,257.767,226.947,257.808z"/>
	<path d="M224.979,252.477c-0.818-0.548-1.627-0.467-2.321,0.181c-0.465,0.433,0.211,1.073,0.685,0.685
		c0.419-0.343,1.082,0.234,1.377,0.483c0.557,0.47,0.998,1.055,1.613,1.461c0.259,0.172,0.544-0.109,0.488-0.375
		C226.601,253.884,225.831,253.047,224.979,252.477z"/>
	<path fill="#73AD7C" d="M236.876,229.283c-0.191-1.231-0.985-2.549-0.986-3.783c0-0.104-0.121-0.179-0.211-0.122
		c-0.829,0.522-0.299,1.53-0.021,2.251c0.792,2.056,0.396,4.356,1.01,6.428c0.06,0.201,0.358,0.209,0.414,0
		C237.491,232.526,237.117,230.829,236.876,229.283z"/>
	<path fill="#73AD7C" d="M230.769,222.692c-0.106-0.518-0.298-1.045-0.572-1.498c-0.294-0.487-0.769-0.832-0.782-1.444
		c-0.005-0.236-0.238-0.337-0.435-0.25c-0.912,0.406-0.177,1.475,0.214,1.995c0.904,1.203,0.564,2.849,1.28,4.094
		c0.064,0.111,0.242,0.117,0.304,0C231.226,224.738,230.953,223.587,230.769,222.692z"/>
	<path fill="#73AD7C" d="M233.141,236.375c-0.012-0.181-0.27-0.181-0.281,0c-0.043,0.668-0.217,1.385,0.016,2.034
		c0.044,0.123,0.205,0.123,0.249,0C233.358,237.76,233.184,237.043,233.141,236.375z"/>
	<path fill="#73AD7C" d="M226.067,231.378c-0.589-0.838-1.017-1.722-1.164-2.74c-0.07-0.489-0.796-0.333-0.821,0.111
		c-0.053,0.956,0.3,1.835,0.771,2.649c0.461,0.797,1.163,1.921,2.018,2.323c0.218,0.103,0.411-0.063,0.378-0.291
		C227.14,232.67,226.498,231.992,226.067,231.378z"/>
</g>
<g>
	<path d="M134.331,245.214c-3.231-7.067-12.171-10.472-19.347-11.383c-7.105-0.901-16.112-0.012-20.638,6.287
		c-0.011,0.015-0.01,0.03-0.02,0.045c-0.165-1.437-0.448-2.858-0.774-4.18c-0.723-2.935-2.387-5.817-5.531-6.5
		c-3.533-0.766-8.031,1.558-9.852,4.532c-1.876,3.064-0.19,8.31,0.626,11.535c-0.258-0.227-0.499-0.418-0.7-0.555
		c-3.44-2.344-8.172-2.739-12.208-2.747c-4.333-0.007-8.415,0.688-11.978,3.297c-3.671,2.688-5.91,7.095-6.396,11.571
		c-0.532,4.891,0.601,10.096,3.475,14.137c2.734,3.843,7.386,5.376,11.926,5.445c2.344,0.036,4.726-0.393,7.034-1.104
		c1.549,1.751,3.47,2.787,6.011,2.101c3.117-0.842,5.583-4.225,7.088-6.875c0.407-0.716-0.644-1.313-1.093-0.639
		c-2.591,3.884-6.737,8.615-10.667,4.96c2.05-0.739,4.026-1.676,5.834-2.72c2.687-1.551,4.632-3.783,5.92-6.433
		c0.34,0.526,0.684,1.048,1.06,1.553c1.003,1.348,2.114,2.601,3.543,3.502c2.429,1.534,5.899-0.006,8.083-1.248
		c2.357-1.341,4.909-3.495,5.964-6.062c0.2-0.487,0.311-0.979,0.338-1.447c1.116,0.509,2.252,0.958,3.401,1.355
		c-0.273,0.293-0.194,0.881,0.184,1.245c0.157,0.151,0.328,0.18,0.481,0.144c1.059,0.683,2.175,1.314,3.222,2.024
		c1.521,1.03,3.261,1.171,5.082,1.39c3.495,0.42,10.873,0.664,11.941-3.852c0.086-0.361-0.321-0.56-0.587-0.342
		c-2.378,1.949-4.757,2.722-7.832,2.824c-1.938,0.063-5.738,0.251-7.327-0.959c-0.667-0.508-1.457-1.103-2.28-1.61
		c5.203,1.316,10.65,1.396,16.082-0.25c3.964-1.201,7.727-3.46,10.025-6.97C136.863,253.558,136.077,249.032,134.331,245.214z
		 M132.7,256.281c-2.043,3.505-6.302,5.367-10.029,6.4c-4.485,1.243-9.44,1.176-13.933,0.049c-4.674-1.172-8.453-4.087-12.783-6.01
		c-1.058-0.469-1.877,0.884-0.911,1.559c1.566,1.093,3.191,2.086,4.861,2.966c1.489,2.829-3.854,6.368-5.963,7.503
		c-2.17,1.167-4.542,1.697-6.538-0.015c-1.103-0.945-1.992-2.137-2.834-3.309c-0.29-0.402-0.63-0.595-0.939-0.8
		c0.288-0.755,0.544-1.529,0.736-2.336c0.371-1.559,0.549-3.189,0.579-4.788c0.023-1.249-1.752-1.177-1.891,0
		c-0.478,4.064-1.127,7.891-4.047,10.968c-2.328,2.453-5.846,3.994-9.151,5.035c-0.347-0.223-0.817-0.038-0.961,0.289
		c-0.239,0.07-0.481,0.145-0.716,0.209c-4.018,1.108-8.506,1.033-12.231-0.957c-4.136-2.21-6.007-7.264-6.498-11.677
		c-0.967-8.689,4.64-16.118,13.356-16.979c3.455-0.341,7.006-0.167,10.377,0.676c1.742,0.436,3.44,1.155,4.826,2.312
		c1.083,0.903,2.521,2.975,1.919,4.466c-0.217,0.539,0.461,0.861,0.873,0.67c2.656-1.231,0.519-4.45-1.348-6.338
		c0.317,0.028,0.647-0.124,0.718-0.49c0.566-2.904-0.869-5.803-0.836-8.717c0.042-3.857,5.621-6.411,8.959-5.383
		c2.474,0.761,3.254,4.19,3.681,6.366c0.535,2.728,0.242,5.54,1.021,8.189c0.146,0.499,0.864,0.5,1.01,0
		c0.473-1.628,0.546-3.413,0.402-5.197c0.276,0.324,0.797,0.473,1.129,0.093c4.5-5.142,11.914-5.982,18.339-5.37
		c6.675,0.636,14.3,3.465,18.069,9.332C134.117,248.38,134.769,252.73,132.7,256.281z"/>
	<path d="M66.104,254.124c-1.298-1.396-3.265-2.644-5.251-2.344c-0.75,0.113-1.442,0.471-2.034,0.968
		c-0.389-0.107-0.783-0.19-1.185-0.234c-0.292-0.046-0.515,0.072-0.621,0.352c-0.946,2.51-2.601,6.62-0.875,9.171
		c-0.166,0.938-0.181,1.894,0.139,2.593c0.079,0.172,0.364,0.166,0.445,0c0.152-0.311,0.294-1.025,0.472-1.845
		c0.047-0.032-0.015-0.073,0.013-0.125c0.181,0.531,0.792,1.015,0.792,1.417v0.004c0,0.112,0.229,0.188,0.341,0.213
		c0.001,0.001,0.054,0.003,0.056,0.004c1.986,1.532,5.527,1.256,7.672,0.206C70.509,262.33,68.781,257,66.104,254.124z
		 M62.5,253.695c0.083-0.01,0.17-0.052,0.188-0.144c0.011-0.054-0.001-0.083,0.003-0.129c0.841,0.326,1.626,0.938,2.205,1.479
		c0.379,0.354,0.763,0.801,1.117,1.3c-0.792,0.846-1.426,1.743-2.668,1.991c-0.024,0.005-0.047,0.003-0.071,0.007
		c-0.127-0.124-0.316-0.177-0.482-0.057c-0.023,0.017-0.045,0.042-0.068,0.06c-0.757-0.104-1.46-0.624-1.956-1.157
		c-0.29-0.312-0.526-0.684-0.705-1.08C60.739,254.783,61.583,253.802,62.5,253.695z M58.727,260.878
		c-0.095,0.194-0.177,0.412-0.253,0.634c-0.063-0.528-0.03-1.09,0.07-1.625c0.044-0.233,0.125-0.535,0.222-0.86
		c0.268-0.163,0.574-0.193,0.934-0.015c0.497,0.246,0.938-0.208,0.884-0.621c0.383,0.312,0.81,0.559,1.268,0.723
		c-0.148,0.203-0.286,0.421-0.414,0.649c-0.069-0.149-0.21-0.265-0.438-0.271C59.952,259.463,59.186,259.937,58.727,260.878z
		 M60.276,263.713c-0.45-0.114-0.801-0.312-1.07-0.568c0.334-1.147,0.459-2.498,1.794-2.637c0.034-0.003,0.059-0.018,0.089-0.026
		c-0.372,0.888-0.557,1.839-0.402,2.604c0.046,0.229,0.389,0.326,0.542,0.144c0.546-0.655,0.712-1.546,0.98-2.341
		c0.192-0.568,0.465-1.079,0.77-1.579c0.052,0.001,0.103,0.007,0.155,0.009c-0.325,0.807-1.187,2.868-0.31,3.481
		c0.097,0.068,0.253,0.062,0.351,0c0.572-0.362,0.538-1.557,0.695-2.16c0.11-0.421,0.253-0.832,0.421-1.233
		c0.071-0.169,0.15-0.329,0.249-0.484c0.005-0.006,0.006-0.014,0.011-0.02c0.117-0.019,0.218-0.087,0.285-0.183
		c0.685-0.463,1.255-1.142,1.59-1.878c0.177,0.297,0.336,0.608,0.479,0.925c-0.169-0.245-0.586-0.33-0.813-0.005
		c-1.049,1.504-2.529,3.91-1.875,5.817c0.02,0.059,0.056,0.095,0.092,0.128C62.972,264.045,61.459,264.013,60.276,263.713z
		 M66.22,262.837c-0.413,0.317-0.905,0.555-1.434,0.732c0.327-0.8,0.433-1.69,0.712-2.513c0.337-0.992,0.867-1.926,1.411-2.818
		c0.072-0.118,0.082-0.23,0.06-0.33c0.084,0.199,0.158,0.401,0.225,0.603c-0.283,0.498-0.507,1.006-0.605,1.578
		c-0.096,0.557-0.212,1.189,0.178,1.645c0.084,0.099,0.233,0.098,0.355,0.048C66.917,262.17,66.623,262.527,66.22,262.837z"/>
	<path d="M125.301,244.659c-0.064,0.032-0.128,0.07-0.193,0.105c-0.794-2.201-3.025-3.746-5.532-4.428
		c-0.594-0.777-1.877-0.813-2.791-0.641c-1.439,0.272-2.783,1.388-3.733,2.522c-0.21-0.272-0.509-0.386-0.877-0.044
		c-0.242,0.226-0.277,0.582-0.047,0.731c0.02,0.096-0.127,0.2-0.127,0.297v0.009c-1.075,1.677-1.521,3.54-1.192,5.26
		c-0.05,0.178-0.089,0.355-0.101,0.529c-0.012,0.178,0.152,0.292,0.313,0.285c0.043,0.123,0.109,0.24,0.161,0.361
		c-0.025,0.124-0.039,0.244-0.024,0.354c0.025,0.191,0.172,0.358,0.374,0.335c0.456,0.757,1.094,1.456,1.963,2.051
		c3.632,2.487,9.632,0.731,11.342-3.228c0.565-1.309,0.685-2.501,0.49-3.569c0.124-0.083,0.241-0.174,0.374-0.249
		C126.148,245.092,125.753,244.437,125.301,244.659z M117.302,241.083c0.256-0.042,0.499-0.038,0.735-0.005
		c1.067,0.655,2.19,0.993,3.344,1.542c1.305,0.622,2.034,1.686,2.301,2.918c-0.097-0.043-0.207-0.06-0.318-0.03
		c-0.462,0.124-0.864,0.397-1.323,0.514c0.619-0.785,0.876-1.935,0.319-2.734c-0.17-0.245-0.563-0.295-0.722,0
		c-0.399,0.74-0.098,2.01-1.1,2.333c-0.05,0.016-0.102,0.021-0.152,0.031c0.001-0.012,0.005-0.022,0.007-0.035
		c0.001-0.004,0.001-0.008,0.002-0.012c0.004-0.037,0.019-0.069,0.021-0.106c-0.006,0.002-0.011,0.005-0.017,0.007
		c-0.006-0.367-0.547-0.631-0.762-0.218c-0.059,0.113-0.125,0.219-0.188,0.33c-0.538-0.134-1.064-0.419-1.48-0.681
		c-0.776-0.487-1.56-1.231-1.812-2.138C115.94,242.011,116.65,241.458,117.302,241.083z M112.886,248.967
		c-0.038,0.095-0.082,0.197-0.126,0.302c-0.054-0.123-0.114-0.243-0.154-0.369c0.54-1.502,0.879-3.546,2.27-3.029
		c-0.351,0.245-0.649,0.624-0.907,0.974C113.5,247.48,113.178,248.238,112.886,248.967z M114.417,251.074
		c-0.326-0.188-0.59-0.404-0.829-0.632c0.031-0.068,0.058-0.146,0.087-0.232c0.197-0.592,0.411-1.174,0.665-1.745
		c0.163-0.365,1.002-2.334,1.579-2.172c0.326,0.091,0.554-0.409,0.235-0.557c-0.293-0.137-0.559-0.144-0.805-0.082
		c0.073-0.174,0.045-0.394-0.151-0.492c-0.776-0.39-1.409-0.206-1.918,0.259c0.018-0.073,0.046-0.138,0.06-0.213
		c0.277-0.49,0.586-0.961,0.965-1.405c0.147-0.173,0.181-0.438,0-0.607c-0.026-0.025-0.053-0.048-0.079-0.073
		c0.213-0.243,0.44-0.477,0.684-0.693c-0.002,0.113-0.011,0.223,0.004,0.344c0.174,1.342,1.213,2.397,2.276,3.143
		c-0.245,0.207-0.444,0.521-0.609,0.743c-0.635,0.85-1.386,1.962-1.552,3.03c-0.042,0.271,0.034,0.457,0.252,0.621
		c0.083,0.063,0.177,0.07,0.277,0.075c0.197,0.009,0.374-0.113,0.475-0.272c0.475-0.746,0.787-1.608,1.223-2.38
		c0.213-0.378,0.665-0.831,0.824-1.288c0.222,0.108,0.453,0.203,0.689,0.282c-0.333,0.495-0.679,0.98-1.015,1.488
		c-0.534,0.805-1.092,2.047-0.543,2.955c0.138,0.229,0.437,0.204,0.58,0c0.313-0.444,0.377-1.001,0.562-1.51
		c0.2-0.55,0.54-1.044,0.867-1.523c0.267-0.392,0.533-0.786,0.749-1.201c0.338,0.011,0.675-0.01,1-0.112
		c0.017-0.005,0.033-0.018,0.05-0.024c-0.438,0.355-0.812,0.785-1.156,1.25c-0.472,0.638-1.297,1.64-1.288,2.451
		c0.004,0.351,0.352,0.493,0.641,0.368c0.674-0.292,0.976-1.246,1.315-1.859c0.036-0.065,0.074-0.125,0.11-0.188
		c-0.219,0.675-0.3,1.424,0.108,1.931c0.117,0.145,0.383,0.133,0.503,0c0.514-0.574,0.431-1.55,0.751-2.26
		c0.192-0.428,0.457-0.793,0.761-1.126c-0.006,0.021-0.017,0.042-0.023,0.063c-0.07,0.246,0.274,0.479,0.45,0.262
		c0.196-0.24,0.394-0.478,0.595-0.708c-0.019,0.363-0.058,0.729-0.14,1.097C122.793,251.904,117.359,252.772,114.417,251.074z"/>
	<path d="M77.104,241.124c-1.216-0.454-2.146-0.694-3.186-1.538c-0.514-0.417-1.07-0.883-1.702-1.104
		c-1.959-0.685-3.792-1.287-5.871-1.539c-2.396-0.29-8.854,1.031-7.748,4.668c0.11,0.363,0.56,0.393,0.764,0.1
		c2.727-3.917,6.268-3.832,10.543-2.558c1.542,0.459,2.757,1.301,4.016,2.264c1.012,0.774,2.176,1.112,3.277,0.42
		C77.5,241.647,77.417,241.24,77.104,241.124z"/>
	<path d="M114.348,232.297c-1.615-3.128-8.711-2.749-11.545-2.553c-2.648,0.183-9.511,1.343-8.766,5.384
		c0.074,0.401,0.702,0.478,0.878,0.115c3.117-6.427,13.597-4.525,18.978-2.354C114.248,233.031,114.492,232.577,114.348,232.297z"/>
	<path d="M86,233.883c-0.652-0.037-1.377-0.147-2.05-0.076c-0.042-0.048-0.072-0.097-0.12-0.145c0.153-0.42-0.424-0.777-0.654-0.352
		c-0.638,1.179-0.935,2.574-1.75,3.646c-0.063,0.083,0.066,0.163,0.135,0.104c0.976-0.819,1.541-1.812,2.052-2.924
		c0.079,0.018,0.16,0.029,0.242,0.04c1.226,2.192-2.857,4.292-2.438,6.846c0.015,0.087,0.145,0.077,0.166,0
		c0.622-2.219,4.035-4.572,2.676-6.807c0.582,0.017,1.188-0.067,1.741-0.099C86.151,234.108,86.151,233.892,86,233.883z"/>
	<path d="M89.337,236.303c-0.608-0.814-1.352-1.496-2.4-1.587c-0.366-0.032-0.744,0.067-0.959,0.371
		c-0.043,0.075-0.065,0.156-0.065,0.243c0-0.09,0.055-0.105-0.017-0.009c-0.02,0.028-0.041,0.056-0.058,0.085
		c-0.066,0.112,0.017,0.298,0.162,0.282c0.176-0.02-0.039-0.027,0.151,0.057c0.246,0.109,0.429,0.071,0.684,0.049
		c0.166-0.014,0.315,0.006,0.462,0.031c-0.689,0.36-1.259,1.072-1.606,1.726c-0.002,0.003-0.002,0.008-0.003,0.012
		c-0.801,0.723-1.485,1.534-2.133,2.399c-0.797,1.066-1.801,2.228-2.28,3.476c-0.094,0.247,0.23,0.354,0.392,0.228
		c0.865-0.674,1.44-1.761,2.059-2.653c0.664-0.958,1.307-1.932,2.007-2.864c0.032,0.044,0.067,0.087,0.115,0.115
		c0.396,0.231,0.719-0.165,0.93-0.437c0.38-0.491,1.198-1.627,1.931-1.068c0.005,0.006,0.011,0.011,0.017,0.018
		C89.005,237.117,89.603,236.658,89.337,236.303z"/>
	<path d="M81,243.95v0.1C82,244.05,82,243.95,81,243.95z"/>
	<path d="M89.445,241.5c-0.008-1.094-0.14-3.207-1.778-2.73c-0.939,0.273-1.851,1.283-2.528,2.213
		c-1.83,0.779-3.254,3.181-2.76,5.051c0.033,0.124,0.204,0.114,0.241,0c0.422-1.286,0.886-2.494,1.692-3.446
		c0.034,0.084,0.113,0.143,0.281,0.143c0.547,0,1.243-0.973,1.574-1.326c0.522-0.557,1.029-1.173,1.691-1.569
		c0.588-0.352,0.681,0.522,0.694,1.159c-1.917-0.186-3.192,1.746-3.73,3.458c-0.059,0.188,0.176,0.291,0.307,0.179
		c0.095-0.082,0.183-0.175,0.273-0.266c-0.81,1.277-1.566,2.788-1.08,4.185c0.063,0.182,0.286,0.167,0.354,0
		c0.359-0.871,0.495-1.795,0.894-2.658c0.354-0.765,0.843-1.469,1.31-2.168c0.206-0.309-0.047-0.6-0.335-0.638
		c0.626-0.693,1.319-1.258,2.356-1.171c0.086,0.018,0.176,0.019,0.259-0.009c0,0,0,0,0,0C89.32,241.853,89.447,241.719,89.445,241.5
		z"/>
	<path d="M91.5,245.559c-1.087-0.033-1.982,0.413-2.803,1.093c-0.108,0.089-0.22,0.188-0.333,0.293
		c-0.017-0.176-0.135-0.337-0.363-0.328c-2.119,0.085-3.37,2.453-3.662,4.338c-0.024,0.154,0.154,0.296,0.281,0.163
		c1.143-1.198,1.32-3.574,3.292-3.719c-0.439,0.476-0.842,1.03-1.051,1.593c-0.242,0.214-0.471,0.46-0.685,0.776
		c-0.592,0.872-0.942,2.188-0.842,3.231c0.016,0.166,0.216,0.23,0.313,0.085c0.498-0.748,0.68-1.666,1.061-2.472
		c0.396-0.838,1.072-1.512,1.896-1.938c0.164-0.084,0.103-0.35-0.071-0.369c0.113-0.137,0.226-0.273,0.343-0.397
		c0.698-0.739,1.596-1.351,2.625-1.468C92.054,246.379,92.082,245.576,91.5,245.559z"/>
	<path d="M93.334,249.897c-0.304-0.641-1.162-0.327-1.609-0.082c-0.923,0.503-1.707,1.285-2.472,1.993
		c-0.573,0.531-1.198,1.094-1.672,1.736c0.336-0.633,0.704-1.249,1.151-1.813c0.259-0.326-0.142-0.751-0.464-0.464
		c-1.208,1.076-1.581,2.686-1.858,4.207c-0.018,0.098,0.121,0.173,0.171,0.072c0.247-0.494,0.488-0.993,0.737-1.487
		c0.034,0.088,0.129,0.152,0.235,0.132c0.446-0.084,0.854-0.388,1.212-0.693c-1.208,1.551-2.798,3.458-2.393,5.536
		c0.026,0.134,0.222,0.121,0.256,0c0.562-1.992,1.508-3.662,2.534-5.44c0.077-0.133-0.05-0.289-0.175-0.289
		c0.015-0.013,0.032-0.027,0.047-0.041c0.691-0.608,1.354-1.247,2.055-1.844c0.466-0.398,1.009-0.932,1.62-1.091
		c0.14-0.036-0.283,1.714-0.46,2.363c-1.734,0.509-3.274,2.001-3.731,3.777c-0.526,0.541-0.958,1.177-1.362,1.813
		c-0.698,1.096-1.375,2.389-1.33,3.716c0.006,0.175,0.234,0.239,0.328,0.089c0.908-1.459,1.374-3.086,2.296-4.475
		c0.058,0.025,0.13,0.018,0.167-0.047c0.137-0.237,0.273-0.476,0.411-0.714c0.203-0.229,0.423-0.45,0.671-0.656
		c0.141-0.117,0.087-0.289-0.027-0.391c0.719-1.086,1.584-2.029,2.93-2.448c0.193-0.06,0.265-0.218,0.255-0.372
		C93.171,252.109,93.762,250.799,93.334,249.897z"/>
	<path d="M89.086,258.476c-0.03-0.124-0.225-0.051-0.164,0.069c0.136,0.27-0.539,0.937-0.68,1.15
		c-0.32,0.481-0.678,0.933-0.97,1.432c-0.355,0.605-1.071,1.906-0.407,2.508c0.058,0.053,0.162,0.083,0.232,0.03
		c0.358-0.271,0.417-0.701,0.591-1.105c0.269-0.626,0.643-1.208,0.991-1.792c0.195-0.327,0.67-0.977,0.62-1.39
		C89.26,259.061,89.162,258.786,89.086,258.476z"/>
	<path d="M93.5,257.379c-0.548-0.063-0.892-0.207-1.428,0.021c-0.51,0.218-0.938,0.58-1.281,1.012
		c-0.527,0.66-1.185,1.747-0.953,2.632c0.027,0.104,0.121,0.118,0.208,0.093c-1.146,1.495-1.708,3.628-1.713,5.363
		c0,0.164,0.232,0.233,0.313,0.085c1.026-1.886,1.523-4.282,3.264-5.676c0.513-0.411-0.161-1.276-0.701-0.908
		c-0.194,0.132-0.37,0.292-0.543,0.453c0.242-0.391,0.442-0.827,0.68-1.178c0.237-0.35,0.547-0.682,0.888-0.932
		c0.349-0.255,0.876-0.65,1.3-0.727C93.678,257.59,93.625,257.393,93.5,257.379z"/>
	<path d="M95,262.657c-0.667,0.001-1.21-0.355-1.837-0.441c-0.07-0.046-0.156-0.066-0.251-0.036
		c-0.833,0.267-1.358,0.847-1.824,1.564c-0.516,0.794-1.153,1.806-1.275,2.756c-0.019,0.145,0.172,0.229,0.282,0.162
		c0.691-0.424,0.983-1.264,1.343-1.954c0.396-0.76,0.868-1.483,1.651-1.873c0.24,0.04,0.473,0.155,0.694,0.246
		c0.179,0.073,0.363,0.125,0.548,0.167c-0.329,0.386-0.648,0.785-0.943,1.188c-0.075,0.103,0.074,0.251,0.176,0.176
		c0.575-0.421,1.161-0.878,1.678-1.369C95.462,263.035,95.293,262.656,95,262.657z"/>
	<path d="M90.5,242.613c-1.334-0.024-2.377,0.528-3.314,1.447c-0.806,0.79-1.979,2.244-1.869,3.439
		c0.012,0.133,0.148,0.236,0.276,0.159c0.771-0.463,1.157-1.482,1.674-2.186c0.79-1.077,1.861-1.959,3.233-2.086
		C90.989,243.342,91.006,242.623,90.5,242.613z"/>
</g>
<g>
	<rect x="47.5" y="32.5" fill="none" stroke="#73AD7C" stroke-miterlimit="10" width="14" height="49"/>
	<rect x="29.5" y="50.5" fill="none" stroke="#73AD7C" stroke-miterlimit="10" width="49" height="14"/>
</g>
<g>
	<polygon fill="#73AD7C" points="369,55 347,55 347,33 319,33 319,55 297,55 297,83 319,83 319,105 347,105 347,83 369,83 	"/>
	<polygon fill="#405142" points="369,61 341,61 341,33 326,33 326,61 297,61 297,76 326,76 326,105 341,105 341,76 369,76 	"/>
	<polygon fill="#CADDCD" points="376,66 336,66 336,26 331,26 331,66 290,66 290,71 331,71 331,112 336,112 336,71 376,71 	"/>
</g>
</svg>
