<?xml version="1.0" encoding="utf-8"?>
<!-- Generator: Adobe Illustrator 16.0.0, SVG Export Plug-In . SVG Version: 6.00 Build 0)  -->
<!DOCTYPE svg PUBLIC "-//W3C//DTD SVG 1.1//EN" "http://www.w3.org/Graphics/SVG/1.1/DTD/svg11.dtd">
<svg version="1.1" id="Capa_1" xmlns="http://www.w3.org/2000/svg" xmlns:xlink="http://www.w3.org/1999/xlink" x="0px" y="0px"
	 width="800px" height="600px" viewBox="0 0 800 600" enable-background="new 0 0 800 600" xml:space="preserve">
<g>
	<path d="M41.53,25.757c0.006-0.078,0.017-0.151,0.022-0.23c0.175-2.599-1.579-5.096-4.088-5.783
		c-2.034-0.556-4.154,0.078-5.785,1.353c-0.323,0.202-0.644,0.428-0.962,0.682c-1.013,0.81-1.595,2.074-1.795,3.389
		c-0.452,1.353-0.585,2.695-0.193,4.199c0.455,1.748,1.669,3.085,3.209,3.892c0.066,0.037,0.133,0.069,0.201,0.103
		c0.324,0.157,0.657,0.299,1.004,0.409c4.589,1.44,8.384-2.905,8.437-7.162C41.583,26.331,41.565,26.045,41.53,25.757z"/>
</g>
<g>
	<path d="M79.315,24.189c-0.148-1.296-0.317-2.351-1.032-3.487c-0.918-1.461-2.201-2.369-3.809-2.938
		c-2.457-0.871-5.028,0.183-6.886,1.778c-0.341,0.293-0.687,0.674-0.994,1.094c-0.526,0.601-0.935,1.311-1.193,2.008
		c-1.251,3.375,0.431,7.071,3.328,8.941c1.009,0.652,2.723,1.148,3.925,0.988c1.186-0.158,2.052-0.263,3.104-0.917
		c1.024-0.636,1.753-1.432,2.392-2.451C78.995,27.857,79.495,25.755,79.315,24.189z"/>
</g>
<g>
	<path d="M115.387,20.683c-0.18-0.752-0.537-1.401-1-1.973c-0.192-0.262-0.4-0.515-0.633-0.748c0.014,0.035,0.029,0.069,0.043,0.104
		c-0.421-0.409-0.886-0.779-1.359-1.121c-1.459-1.054-3.378-0.942-5.029-0.652c-1.107,0.31-2.068,0.87-2.883,1.68
		c-0.81,0.815-1.37,1.776-1.68,2.883c-0.619,2.249,0.033,4.709,1.68,6.356c0.794,0.794,1.778,1.35,2.835,1.65
		c2.277,1.051,5.082,0.563,6.866-1.221C116.1,25.77,116.438,23.025,115.387,20.683z"/>
</g>
<g>
	<path d="M149.551,20.419c-1.056-0.893-2.225-1.438-3.69-1.438c-3.296,0-5.861,2.75-5.861,6.047v2.069
		c0,0.768-0.048,1.376,0.167,1.98c0.011,0.06-0.07,0.118-0.059,0.178c0.28,1.439,1.422,2.788,2.651,3.508
		c1.254,0.735,3.09,1.122,4.5,0.592c0.676-0.254,1.411-0.492,2.017-0.912c1.125-0.779,1.679-1.301,2.437-2.446
		c0.821-1.239,1.13-2.842,1.137-4.302C152.858,23.501,151.487,21.394,149.551,20.419z"/>
</g>
<g>
	<path d="M190.013,22.484c-0.235-0.575-0.475-1.148-0.724-1.717c-0.242-0.555-0.706-0.985-1.072-1.457
		c-0.449-0.579-1.164-0.979-1.809-1.334c-2.759-1.521-6.381-0.72-7.982,2.093c-0.046,0.08-0.094,0.158-0.142,0.237
		c-0.243,0.273-0.461,0.569-0.647,0.886c-1.068,1.824-0.952,4.027,0.079,5.73c0.709,1.422,1.971,2.541,3.582,2.984
		c0.728,0.195,1.456,0.245,2.184,0.161c0.018,0.001,0.031,0.003,0.049,0.005c0.684,0.064,1.396-0.061,2.053-0.257
		c1.321-0.393,1.872-0.897,2.949-1.732c0.713-0.718,1.207-1.564,1.48-2.54C190.287,24.524,190.287,23.504,190.013,22.484z"/>
</g>
<g>
	<path d="M224.842,19.347c-1.569-0.794-3.01-1.239-4.781-1.294c-1.488-0.047-3.003,0.635-4.043,1.675
		c-0.469,0.469-0.863,1.058-1.159,1.7c-0.122,0.177-0.235,0.358-0.325,0.549c-0.527,1.126-0.709,1.551-0.753,2.829
		c-0.037,1.06,0.351,1.999,0.805,2.924c0.756,1.542,2.437,2.725,4.07,3.146c1.806,0.466,3.668,0.172,5.287-0.735
		c1.739-0.977,2.845-2.717,3.432-4.572C228.082,23.332,226.966,20.423,224.842,19.347z"/>
</g>
<g>
	<path d="M263.508,20.492c-1.617-1.635-3.747-2.448-6.041-2.399c-0.706,0.015-1.382,0.156-2.014,0.393
		c-0.092,0.02-0.184,0.03-0.275,0.054c-1.645,0.417-3.1,1.55-3.97,2.99c-0.938,1.554-0.95,3.262-0.652,4.982
		c0.22,1.271,1,2.262,1.784,3.221c1.2,1.469,3.618,2.508,5.504,2.325c0.414-0.041,1.362-0.084,1.926-0.313
		c1.616-0.657,1.558-0.647,2.95-1.735c0.745-0.582,1.34-1.489,1.713-2.363c0.534-0.921,0.802-1.914,0.806-2.979
		C265.237,23.1,264.607,21.604,263.508,20.492z"/>
</g>
<g>
	<path d="M294.938,15.306c-3.315,0-6.082,2.767-6.082,6.082s2.767,6.082,6.082,6.082s6.082-2.767,6.082-6.082
		S298.254,15.306,294.938,15.306z"/>
</g>
<g>
	<path d="M336.627,19.358c-3.46-2.142-9.078-0.904-10.877,2.917c-0.449,0.773-0.696,1.601-0.767,2.478
		c-0.242,0.759-0.372,1.552-0.372,2.297c-0.001,2.194,1.17,4.157,3.003,5.315c2.216,1.401,5.179,1.035,7.336-0.275
		c2.012-1.223,3.624-3.298,4.148-5.612c-0.013,0.031-0.026,0.063-0.04,0.094c0.085-0.213,0.175-0.425,0.241-0.645
		C340.058,23.388,338.813,20.712,336.627,19.358z"/>
</g>
<g>
	<path d="M376.27,18.7c-0.241-1.183-0.909-1.901-1.621-2.808c-0.807-1.028-2.493-1.804-3.73-2.042
		c-1.035-0.199-2.022-0.237-2.98-0.005c-0.438,0.037-0.882,0.107-1.356,0.177c-0.096,0.014-1.098,0.372-1.52,0.667
		c-1.27,0.885-1.279,0.952-2.194,2.191c-0.73,0.988-0.82,2.17-0.948,3.334c-0.121,1.098,0.394,2.369,0.868,3.322
		c0.305,0.613,0.755,1.188,1.277,1.632c1.506,1.282,3.271,2.14,5.294,2.104c3.065-0.054,6.197-2.126,6.917-5.224
		C376.582,20.734,376.538,20.012,376.27,18.7z"/>
</g>
<g>
	<path d="M409.95,15.066c-1.501-0.87-3.251-1.154-4.926-0.646c-0.246,0.075-0.495,0.174-0.743,0.269
		c-0.266,0.03-0.528,0.077-0.779,0.149c-1.643,0.474-2.956,1.755-3.413,3.413c-0.263,0.957-0.202,1.937,0.101,2.833
		c0.031,0.208,0.058,0.417,0.113,0.618c0.27,0.961,0.756,1.796,1.459,2.505c1.135,1.135,2.46,1.526,4.014,1.662
		c0.263,0.023,0.526,0.007,0.791-0.022c0.605,0.007,1.176-0.084,1.973-0.197c0.896-0.251,1.674-0.705,2.333-1.36
		c0.474-0.474,0.811-0.994,1.054-1.553c0.008-0.013,0.018-0.023,0.025-0.036C413.579,20.139,412.507,16.548,409.95,15.066z"/>
</g>
<g>
	<path d="M451.092,20.789c-1.426-1.732-4.067-2.737-6.273-2.682c-1.165,0.029-2.23,0.296-3.201,0.746
		c-1.152,0.203-2.262,0.64-3.212,1.351c-1.591,1.19-3.164,2.535-4.019,4.388c-1.474,3.193-1.428,6.584,1.04,9.306
		c1.84,2.03,4.742,2.622,7.358,2.602c3.011-0.024,6.173-1.489,8.165-3.746c1.551-1.756,2.322-3.6,2.531-5.931
		C453.689,24.499,452.499,22.498,451.092,20.789z"/>
</g>
<g>
	<path d="M486.914,19.762c0-1.192-0.37-2.261-0.982-3.164c-0.284-0.529-0.636-1.018-1.072-1.458
		c-1.568-1.568-3.911-2.188-6.052-1.599c-2.09,0.575-3.769,2.253-4.344,4.343c-0.555,2.019-0.044,4.631,1.6,6.051
		c0.959,0.828,1.625,1.335,2.873,1.669c1.846,0.494,3.896,0.112,5.4-1.064C485.897,23.481,486.914,21.764,486.914,19.762z"/>
</g>
<g>
	<path d="M524.087,20.343c-0.835-1.735-2.599-2.935-4.393-3.477c-1.924-0.582-3.944-0.155-5.685,0.736
		c-1.136,0.582-1.781,1.463-2.529,2.437c-0.36,0.469-0.624,1.114-0.766,1.635c-0.075,0.267-0.131,0.539-0.169,0.813
		c-0.294,1.343-0.224,2.841,0.223,3.981c0.685,1.748,1.742,3.426,3.513,4.263c1.737,0.822,3.655,1.218,5.544,0.608
		c1.269-0.409,1.954-0.869,2.953-1.735c0.981-0.851,1.396-1.965,1.869-3.12C525.443,24.542,524.956,22.149,524.087,20.343z"/>
</g>
<g>
	<path d="M560.605,19.844c-0.125-2.33-2.051-4.436-4.229-5.035c-2.498-0.687-5.231,0.418-6.535,2.66
		c-0.725,1.245-0.874,2.534-0.874,3.921c0,3.201,2.671,5.871,5.871,5.871s5.871-2.67,5.871-5.871
		C560.709,20.859,560.673,20.348,560.605,19.844z"/>
</g>
<g>
	<path d="M599.072,18.98c-1.063-1.743-2.871-3.221-4.896-3.665c-1.929-0.422-4.271-0.293-5.905,0.968
		c-1.209,0.932-1.72,1.349-2.562,2.591c-0.39,0.426-0.734,0.887-1.003,1.377c-0.983,1.792-1.246,3.811-0.751,5.794
		c0.317,1.275,0.937,2.086,1.755,3.067c0.804,0.962,2.007,1.456,3.137,1.88c0.768,0.289,1.666,0.361,2.486,0.304
		c1.538-0.107,2.822-0.414,4.196-1.112c0.84-0.427,1.632-1.024,2.291-1.69c1.05-1.062,1.512-2.023,2.045-3.38
		C600.613,23.213,600.104,20.671,599.072,18.98z"/>
</g>
<g>
	<path d="M633.402,18.048c-1.623-1.757-4.176-2.343-6.359-1.44c-1.738,0.48-2.921,1.806-3.474,3.478
		c-0.238,0.72-0.236,1.558-0.3,2.324c-0.106,1.292,0.606,2.72,1.495,3.608c1.31,1.31,3.187,1.758,4.965,1.313
		c0.624-0.157,1.203-0.42,1.778-0.691c0.712-0.263,1.347-0.657,1.895-1.201c0.647-0.652,1.096-1.421,1.344-2.306
		C635.256,21.278,634.681,19.433,633.402,18.048z"/>
</g>
<g>
	<path d="M673.281,21.2c-0.106-0.436-0.255-0.799-0.422-1.141c-0.091-0.786-0.336-1.56-0.751-2.27
		c-1.708-2.916-5.242-3.598-8.131-2.132c-1.495,0.759-2.703,2.363-3.633,3.685c-1.581,2.249-1.947,5.518-0.47,7.909
		c0.651,1.054,1.352,1.711,2.4,2.37c1.158,0.727,2.102,0.783,3.413,0.938c2.028,0.241,3.978-0.782,5.452-2.061
		c1.013-0.878,1.858-2.339,2.14-3.647C673.563,23.537,673.601,22.515,673.281,21.2z"/>
</g>
<g>
	<path d="M709.93,16.982c-0.202-0.958-0.642-1.949-1.224-2.744c-0.371-0.505-0.795-1.15-1.302-1.59
		c-1.066-0.925-1.563-1.212-2.896-1.694c-2.569-0.928-5.658,0.516-6.986,2.782c-0.621,1.061-0.881,2.377-0.771,3.645
		c-0.005,0.024-0.016,0.048-0.02,0.072c-0.208,1.228-0.341,2.523,0.135,3.721c0.62,1.561,1.444,2.864,2.969,3.701
		c1.108,0.608,2.438,0.96,3.707,0.84c1.414-0.133,2.087-0.273,3.356-0.923c0.979-0.501,1.79-1.434,2.367-2.343
		C710.306,20.812,710.315,18.809,709.93,16.982z"/>
</g>
<g>
	<path d="M744.067,12.906c-1.8-0.434-3.527-0.618-5.354-0.153c-2.325,0.592-4.963,2.616-5.34,5.125
		c-0.262,0.975-0.262,1.949,0,2.923c0.378,1.375,1.298,2.566,2.527,3.286c1.27,0.744,2.817,0.945,4.236,0.555
		c1.059-0.292,1.828-0.848,2.503-1.575c0.239-0.068,0.477-0.13,0.718-0.192c1.963-0.131,3.767-1.956,4.254-3.728
		C748.327,16.548,746.756,13.554,744.067,12.906z"/>
</g>
<g>
	<path d="M782.352,13.678c-1.332-0.751-2.518-0.879-3.843-0.773c-1.705-0.293-3.498-0.023-4.981,0.959
		c-1.911,1.266-3.311,3.259-3.286,5.634c0.015,1.507,0.567,3.313,1.815,4.28c0.379,0.292,0.757,0.584,1.135,0.877
		c0.875,0.507,1.818,0.762,2.831,0.766c1.007,0.1,2.221-0.322,3.035-0.918c0.423-0.209,0.815-0.457,1.195-0.756
		c0.054-0.035,0.107-0.071,0.159-0.107c0.148-0.054,0.293-0.111,0.437-0.177c0.068-0.017,0.136-0.045,0.203-0.064
		c0.01-0.003,0.021-0.003,0.03-0.006c0.029-0.008,0.056-0.021,0.085-0.031c0.185-0.057,0.374-0.123,0.563-0.204
		c0.007-0.003,0.014-0.007,0.021-0.01c0.195-0.085,0.391-0.171,0.601-0.291c-0.006-0.001-0.013-0.003-0.019-0.005
		c1.184-0.693,2.085-1.809,2.46-3.171C785.418,17.408,784.42,14.847,782.352,13.678z"/>
</g>
</svg>
