<?xml version="1.0" encoding="utf-8"?>
<!-- Generator: Adobe Illustrator 16.0.0, SVG Export Plug-In . SVG Version: 6.00 Build 0)  -->
<!DOCTYPE svg PUBLIC "-//W3C//DTD SVG 1.1//EN" "http://www.w3.org/Graphics/SVG/1.1/DTD/svg11.dtd">
<svg version="1.1" id="Capa_1" xmlns="http://www.w3.org/2000/svg" xmlns:xlink="http://www.w3.org/1999/xlink" x="0px" y="0px"
	 width="800px" height="800px" viewBox="0 0 800 800" enable-background="new 0 0 800 800" xml:space="preserve">
<g>
	<defs>
		<path id="SVGID_1_" d="M335.751,363.713l144.185,144.186c15.493,1.647,30.188,5.481,43.615,18.363
			c18.253,17.514,43.468,22.04,64.327,10.991L339.883,289.255C339.883,310.472,339.875,306.723,335.751,363.713"/>
	</defs>
	<clipPath id="SVGID_2_">
		<use xlink:href="#SVGID_1_"  overflow="visible"/>
	</clipPath>
	
		<linearGradient id="SVGID_3_" gradientUnits="userSpaceOnUse" x1="-239.0615" y1="801.1367" x2="-238.0615" y2="801.1367" gradientTransform="matrix(-1.380000e-005 315.2305 315.2305 1.380000e-005 -252081.25 75648.5)">
		<stop  offset="0" style="stop-color:#FF8500"/>
		<stop  offset="0.1186" style="stop-color:#FF8206"/>
		<stop  offset="0.2789" style="stop-color:#FF7B17"/>
		<stop  offset="0.463" style="stop-color:#FF6F34"/>
		<stop  offset="0.6649" style="stop-color:#FF5F5B"/>
		<stop  offset="0.8789" style="stop-color:#FF498D"/>
		<stop  offset="1" style="stop-color:#FF3CAD"/>
	</linearGradient>
	<rect x="335.751" y="289.255" clip-path="url(#SVGID_2_)" fill="url(#SVGID_3_)" width="252.127" height="259.047"/>
</g>
<g>
	<defs>
		<polygon id="SVGID_4_" points="344.424,366.75 383.102,405.423 419.201,369.191 450.596,399.916 496.521,353.844 426.927,284.247 
					"/>
	</defs>
	<clipPath id="SVGID_5_">
		<use xlink:href="#SVGID_4_"  overflow="visible"/>
	</clipPath>
	
		<linearGradient id="SVGID_6_" gradientUnits="userSpaceOnUse" x1="-238.9756" y1="801.4824" x2="-237.9753" y2="801.4824" gradientTransform="matrix(51.6671 101.4025 101.4025 -51.6671 -68527.875 65942.3438)">
		<stop  offset="0" style="stop-color:#FF8500"/>
		<stop  offset="0.0617" style="stop-color:#FF7D14"/>
		<stop  offset="0.2241" style="stop-color:#FF6942"/>
		<stop  offset="0.3869" style="stop-color:#FF5969"/>
		<stop  offset="0.5472" style="stop-color:#FF4C86"/>
		<stop  offset="0.7043" style="stop-color:#FF439C"/>
		<stop  offset="0.857" style="stop-color:#FF3EA9"/>
		<stop  offset="1" style="stop-color:#FF3CAD"/>
	</linearGradient>
	<polygon clip-path="url(#SVGID_5_)" fill="url(#SVGID_6_)" points="465.174,222.722 545.539,380.447 375.772,466.948 
		295.407,309.222 	"/>
</g>
<g>
	<defs>
		<path id="SVGID_7_" d="M498.127,359.814l124.681,124.683c4.068-18.683,4.673-42.089,0.24-70.557L498.363,289.255
			C498.363,310.472,498.355,306.723,498.127,359.814"/>
	</defs>
	<clipPath id="SVGID_8_">
		<use xlink:href="#SVGID_7_"  overflow="visible"/>
	</clipPath>
	
		<linearGradient id="SVGID_9_" gradientUnits="userSpaceOnUse" x1="-239.0625" y1="800.9473" x2="-238.0625" y2="800.9473" gradientTransform="matrix(-1.360000e-005 311.334 311.334 1.360000e-005 -248799.5 74717.25)">
		<stop  offset="0" style="stop-color:#FF8500"/>
		<stop  offset="0.04" style="stop-color:#FF7D14"/>
		<stop  offset="0.1452" style="stop-color:#FF6942"/>
		<stop  offset="0.2507" style="stop-color:#FF5969"/>
		<stop  offset="0.3546" style="stop-color:#FF4C86"/>
		<stop  offset="0.4564" style="stop-color:#FF439C"/>
		<stop  offset="0.5553" style="stop-color:#FF3EA9"/>
		<stop  offset="0.648" style="stop-color:#FF3CAD"/>
		<stop  offset="1" style="stop-color:#FF3CAD"/>
	</linearGradient>
	<rect x="498.127" y="289.255" clip-path="url(#SVGID_8_)" fill="url(#SVGID_9_)" width="129.353" height="195.242"/>
</g>
<g>
	<defs>
		<path id="SVGID_10_" d="M444.793,409.105l132.379,132.378c20.361-5.504,38.602-23.995,45.751-57.521L498.363,359.4
			C498.363,359.4,488.212,366.727,444.793,409.105"/>
	</defs>
	<clipPath id="SVGID_11_">
		<use xlink:href="#SVGID_10_"  overflow="visible"/>
	</clipPath>
	
		<linearGradient id="SVGID_12_" gradientUnits="userSpaceOnUse" x1="-239.064" y1="800.9395" x2="-238.064" y2="800.9395" gradientTransform="matrix(-1.310000e-005 300.6172 300.6172 1.310000e-005 -240242.25 72226.25)">
		<stop  offset="0" style="stop-color:#FF8500"/>
		<stop  offset="0.0157" style="stop-color:#FF7D14"/>
		<stop  offset="0.0572" style="stop-color:#FF6942"/>
		<stop  offset="0.0987" style="stop-color:#FF5969"/>
		<stop  offset="0.1396" style="stop-color:#FF4C86"/>
		<stop  offset="0.1797" style="stop-color:#FF439C"/>
		<stop  offset="0.2186" style="stop-color:#FF3EA9"/>
		<stop  offset="0.2551" style="stop-color:#FF3CAD"/>
		<stop  offset="1" style="stop-color:#FF3CAD"/>
	</linearGradient>
	<rect x="444.793" y="359.4" clip-path="url(#SVGID_11_)" fill="url(#SVGID_12_)" width="178.13" height="182.083"/>
</g>
<g>
	<defs>
		<path id="SVGID_13_" d="M273.323,411.702l1.562,1.562c37.188,17.49,81.071,41.977,125.887,74.984
			c27.158,20.002,54.185,16.997,79.137,19.647L331.751,359.737C331.751,359.737,316.744,369.326,273.323,411.702"/>
	</defs>
	<clipPath id="SVGID_14_">
		<use xlink:href="#SVGID_13_"  overflow="visible"/>
	</clipPath>
	
		<linearGradient id="SVGID_15_" gradientUnits="userSpaceOnUse" x1="-239.064" y1="800.9785" x2="-238.065" y2="800.9785" gradientTransform="matrix(-1.320000e-005 302.8809 302.8809 1.320000e-005 -242224.25 72767.5)">
		<stop  offset="0" style="stop-color:#FF8500"/>
		<stop  offset="0.0617" style="stop-color:#FF7D14"/>
		<stop  offset="0.2241" style="stop-color:#FF6942"/>
		<stop  offset="0.3869" style="stop-color:#FF5969"/>
		<stop  offset="0.5472" style="stop-color:#FF4C86"/>
		<stop  offset="0.7043" style="stop-color:#FF439C"/>
		<stop  offset="0.857" style="stop-color:#FF3EA9"/>
		<stop  offset="1" style="stop-color:#FF3CAD"/>
	</linearGradient>
	<rect x="273.322" y="359.737" clip-path="url(#SVGID_14_)" fill="url(#SVGID_15_)" width="206.586" height="148.513"/>
</g>
<g>
	<path fill="#FFFA84" d="M339.882,288.539c0-0.972-1.202-0.913-1.228-0.035c-0.039,0.188-0.088,1.28-1.725,3.018
		c-1.58,1.581-21.93,22.259-63.93,63.166v57.061h24.271c3.694,0,5.165-1.484,6.659-2.986c18.226-18.227,23.541-24.772,23.541-24.772
		s12.427-12.968,12.427-29.124C339.898,354.865,339.886,288.612,339.882,288.539"/>
	<path fill="#3EFFFF" d="M437.974,301.707c-0.041,0.202,0.264,1.38-1.54,3.26c-0.643,0.641-99.537,100.306-102.387,103.156
		c-1.406,1.406-0.303,3.625,1.789,3.625h0.72h1.837h43.115c3.695,0,4.066-1.484,5.56-2.986l39.453-40.363
		c0,0,12.752-12.703,12.752-28.859c0,0,0.041-36.754,0-37.526C439.19,300.984,437.871,301.342,437.974,301.707"/>
	<path fill="#FFFFFF" d="M425.289,283.748h-10.72c-0.735,0-1.166,0.145-1.542,0.518c1.02-1.018-68.643,68.812-68.307,68.474
		c-0.375,0.377-0.721,0.656-0.721,1.392v10.72c0,0.67-0.082,1.896,1.237,1.896h2.294h20.533c1.621,0,3.375-0.766,4.445-1.836
		c3.036-3.037,49.721-49.811,52.744-52.833c1.07-1.07,1.746-2.829,1.746-4.449v-20.536V284.8
		C427,283.48,425.96,283.748,425.289,283.748"/>
	<path fill="#3EFFFF" d="M416,382.849c-3,2.361-20.211,21.435-23.998,25.222c-1.406,1.41,0.199,3.678,2.291,3.678h0.718h1.837H416
		V382.849z"/>
	<path fill="#FFFA84" d="M498.361,290.723c0-0.972-1.201-0.913-1.229-0.035c-0.031,0.167-0.816,2.016-1.533,2.732
		c-0.715,0.715-18.6,18.788-53.6,53.08v55.769c0,7.072,6.201,9.758,11.141,9.758c6.244,0,10.146-3.592,11.642-5.094
		c18.549-18.55,21.149-22.211,21.149-22.211s12.413-12.638,12.413-28.791C498.345,355.931,498.364,290.809,498.361,290.723"/>
</g>
</svg>
