<?xml version="1.0" encoding="utf-8"?>
<!-- Generator: Adobe Illustrator 22.0.1, SVG Export Plug-In . SVG Version: 6.00 Build 0)  -->
<svg version="1.1" id="Capa_1" xmlns="http://www.w3.org/2000/svg" xmlns:xlink="http://www.w3.org/1999/xlink" x="0px" y="0px"
	 viewBox="0 0 960 960" style="enable-background:new 0 0 960 960;" xml:space="preserve">
<g>
	<path d="M59-75.8c-18.5,0-37,0.1-55.5-0.1c-4.3,0-8.7-0.4-12.9-1.3c-11.6-2.4-23.2-1.4-34.9-1.6c-9.5-0.2-19-0.1-28.5,0.1
		c-2.2,0-5.2,0.3-6.3,1.7c-1.8,2.3,0.6,4.4,2.1,6.5c1.7,2.4,3.4,5,4.3,7.8c0.8,2.4,2,3.2,4.3,3.2c2.7,0,5.3,0.3,8,0.3
		c8.6-0.2,15,3.6,19.8,10.6c1.6,2.4,2.1,5.8,5.4,6.8c5.7,1.6,11.5,4.1,17.6,2.2c7-2.2,14.1-2.1,21.2-2.2c10-0.1,20-0.1,30-0.2
		c1.3,0,2.8,0.2,4-0.3c14.3-6.7,29.6-5.2,44.7-5.4c9.3-0.1,18.7,0,28,0c7.6,0,13.9,2.7,18.6,8.9c8.6,11.5,2.7,27-9.9,31.9
		c-8.9,3.5-17.9,4.4-27.3,4.2c-4.1-0.1-8.3,0.5-12.3,1.5c-12,3-24.1,4.3-36.5,4.3c-23-0.1-46,0.1-69,0.2c-8.8,0-17.6-0.3-26.3-2.5
		c-1.6-0.4-3.4-0.1-4.9-0.5c-3.8-1-8.2-1.3-11.3-3.4c-5.3-3.5-11.2-5.1-17.1-6.6c-6-1.5-11.8-3.2-16.7-7.4c-1.6-1.4-3.8-2-5.8-2.8
		c-8.8-3.5-13.1-10.4-13.2-19.3c-0.4-23.8-0.2-47.6-0.1-71.5c0-2.8,1.1-5.6,1-8.4c-0.2-4.5-0.7-8.9-1.6-13.3
		c-1.4-6.8-3.3-13.5-4.9-20.2c-1.2-5.2-0.4-10.2,1.1-15.2c0.6-1.9,1.1-3.8,1.3-5.7c1.4-11.8,10.1-20.1,21.6-20.1
		c12.5,0,25,0.2,37.4,0.7c4.3,0.2,8.6,1,12.8,2.1c12.2,3.2,24.7,3.3,37.2,3.2c26-0.1,52-0.1,78,0c11,0.1,21.9-1.2,32.8-2.4
		c9.3-1,19-1,28.3,0.2c12.8,1.7,17.7,12.9,16.9,21.3c-1.1,11.9-8.7,19.4-21.6,19.9c-7.1,0.3-14.5-0.6-21.4,0.6
		c-20,3.5-40.2,2.1-60.3,2.3c-22,0.3-44,0-66,0c-11.4,0-22.4-2.2-33.5-4.4c-5-1-10.2-1.2-15.4-1.4c-3.3-0.1-4.8,1.4-4.4,4.6
		c0.8,5.9,2.3,11.6,3.6,17.4c0.2,1,0.8,1.8,1.1,2.8c2.1,6,2.1,6,8.8,6c16.3,0,32.6,0,49,0.1c2.8,0,5.6,0.8,8.4,1
		c8.6,0.7,17.2,1.7,25.8,1.8c22.7,0.2,45.3,0.1,68,0c2.6,0,5.3-0.6,7.8-1.4c5.1-1.8,10-1.6,15.2,0c2.8,0.9,5.8,1.4,8.7,1.4
		c11.3,0.2,19.9,7,22,18c1.9,10.4-6.3,24-20.7,24.1c-15,0.1-30,0-45,0C66.7-75.9,62.8-75.8,59-75.8L59-75.8z"/>
	<path d="M47.9,67.2c-21.8,0-43.7,0.1-65.5-0.1c-2.9,0-6.1-0.5-8.7-1.7c-9.1-4.2-18.7-4.4-28.4-4.3c-3.6,0-7.2-0.8-10.8-1.3
		c-0.5-0.1-0.9-0.4-1.4-0.5c-8.1-2.2-9.7-1-9.8,7.1c0,6.3,0.1,12.7,0,19c-0.1,2.8,1,4,3.8,4c7.8,0,15.6,0,23.4,0c15.5,0,31,0,46.4,0
		c8.2,0,16.3-0.2,24.5-0.3c0.8,0,1.7-0.2,2.4-0.4c7.7-2.8,15.7-2.1,23.7-2.1c8.5,0,16.9-0.2,25.4,0c12.6,0.2,25.3-1,37.8,1.2
		c3.9,0.7,7.8,1.7,11.6,2.9c10.1,3.3,16.6,14.8,13.7,24.7c-3.9,13.2-15.5,17.8-24.9,15.3c-8.1-2.2-16.4-2.3-24.7-2.1
		s-16.6-0.1-24.9-0.2c-7.5,0-15-0.2-22.4,0.1c-3.5,0.1-6.9,1.5-10.3,1.7c-12.3,0.6-24.6,1.1-36.9,1.2c-21.3,0.2-42.6,0-64,0
		c-4.1,0-4.5,0.3-4.5,4.7c-0.1,7.5,0,15-0.1,22.5c0,2.8,1,3.9,3.8,3.8c9.7-0.1,19.4,0.4,29-0.3c7.9-0.5,15.9-1.9,23.6-3.8
		c5.9-1.4,11.8-1.6,17.8-1.7c8.1-0.1,16.3,0,24.4,0c8.8,0,17.6,0,26.4,0c8.3,0,16.6,0,24.9,0c8.5,0,16.9,0.1,25.4,0
		c8,0,16-0.6,23.9,0c10.6,0.7,21.6,8.8,20,24.3c-1,9.8-11.6,18.3-22.5,17.9c-9-0.3-17.9-0.1-26.9-0.1c-8.5,0-16.9-0.1-25.4-0.1
		s-16.9,0.1-25.4,0.1c-8.3,0-16.6,0-24.9,0c-8,0-16-0.5-23.9,0c-5.8,0.4-11.4,2-17.2,3c-23,4.2-46.2,2.1-69.3,2.4
		c-9,0.1-14.7-5.2-18.4-13.1c-3.4-7.3-5.6-14.9-6.9-22.8c-0.2-1.3-0.4-2.6-0.4-4c0-28.5,0.1-57,0.1-85.5c0-5.7-0.2-11.3-0.1-17
		c0.1-2.7-0.7-4.6-2.5-6.7c-7.8-8.4-8.5-18.1-1.8-27.2c1.9-2.6,4.7-5,7.6-6.2c7-2.9,14-5.9,22.1-5.1c8.1,0.7,16.3,0.2,24.4,0.3
		c1.8,0,3.8-0.2,5.4,0.5c6.9,2.6,14.1,2.3,21.2,2c7.7-0.3,14.8,1.9,22,4c3.9,1.1,7.6,2,11.7,1.9c32.3-0.1,64.6,0,97,0
		c8.3,0,16.7,0,25-0.1c12.2-0.1,21.7,9,21.9,20.6c0.2,11.9-8.9,21.4-20.8,21.5c-17.7,0.1-35.3,0-53,0C56.9,67.2,52.4,67.2,47.9,67.2
		L47.9,67.2z"/>
	<path d="M-260.3,58.4c-8.5,0-16.9,0-25.4,0s-17,0-25.4,0c-8.6,0-17.3-0.1-25.9,0c-5.3,0-10.6,0.2-16,0.2c-2.8,0-3.8,1.4-3.7,4.1
		c0.1,3.8-0.2,7.7,0.1,11.5c0.5,5.7-1.3,10.8-3.3,15.9c-2.5,6.3-5.1,12.6-5.5,19.5c-0.4,6.3-0.5,12.6-1.3,18.9
		c-0.4,3.2-1.9,6.3-2.9,9.4c-0.4,1.2-1.2,2.4-1.4,3.6c-0.8,5.3-0.1,6.2,5.2,6.3c11.5,0.2,23,0.1,34.5,0.3c5.2,0.1,10.1,1.3,15,3.3
		c3.4,1.4,7.4,2,11.1,2.2c8.3,0.3,16.6,0,24.9-0.1c8.3,0,16.6,0,24.9,0c8.6,0,17.3,0,25.9,0c8.5,0,16.9,0,25.4,0
		c7.1,0,14.3,0.1,21.4,0c0.7,0,1.9-1.1,1.9-1.5c-0.4-3.8-1.1-7.5-1.7-11.3c-0.5-2.8-2.1-3.7-4.9-3.6c-12.7,0.1-25.3,0.1-38-0.1
		c-5.8-0.1-11.7-0.1-17.3-1.3c-11.3-2.4-22.6-1.1-33.9-1.5c-4.3-0.2-8.7,0-13,0c-11.7,0.1-21.1-8.4-21.5-20.5
		c-0.3-11.1,7.9-21.1,20.5-21.5c13.8-0.4,27.7-0.1,41.5-0.1c1,0,2,0.1,3,0.4c10.9,3.1,22.1,2.7,33.2,2.7c14.7,0,29.3-0.1,44-0.1
		c11.1,0,19.6,8.1,21.3,16.7c1.3,6.8,4,13.3,5.7,20c1.2,4.6,1.8,9.4,2.7,14.1c0.5,2.8,1.3,5.6,1.2,8.3c-0.2,4.6-0.5,9.3-1.8,13.7
		c-1.7,5.8-4,11.6-6.8,17c-3.7,7.3-10.4,10.8-18.4,10.9c-11.8,0.1-23.6-0.4-35.4-0.4c-8.3-0.1-16.6,0.2-24.9,0.2
		c-8.5,0-16.9-0.2-25.4-0.2c-8.3,0-16.6,0-24.9,0.1c-8.3,0-16.6,0.2-24.9,0c-6.5-0.2-12.9-0.7-19.3-1.4c-2.8-0.3-5.7-0.9-8.2-2
		c-3.6-1.7-7.2-2.3-11.1-2.3c-12.3,0-24.7,0-37-0.1c-3.1,0-6.3-0.6-9.4-1c-3.4-0.5-6.9-1.2-10.3-1.7c-8.2-1.1-12.9-6.4-16-13.4
		c-1.2-2.6-1.4-5.8-1.5-8.7c-0.2-9.2-0.3-18.3,0.1-27.5c0.2-3.7,1.1-7.6,2.7-10.9c2.1-4.3,3.4-8.6,3.1-13.4
		c-0.5-8.8,0.8-17.4,4.2-25.4c5.1-12.2,4.8-24.9,4.7-37.6c0-6-0.1-12,0.9-17.9c1.9-10.6,12.2-16.2,20.2-16.2
		c8.8,0,17.6,0.3,26.4,0.4c8.5,0,16.9-0.1,25.4-0.1c8.1,0,16.3,0,24.4,0c8.8,0,17.6,0,26.4,0c8.5,0,16.9,0,25.4,0
		c8.6,0,17.3,0,25.9,0c8.3,0,16.6,0.1,24.9,0.1c8.5,0,17,0.3,25.4-0.1c11.8-0.6,21.8,7,23.5,18.5c1.6,10.7-7.2,23.8-21.9,23.7
		c-13.1-0.1-26.3,0.1-39.4,0c-11.6,0-23.3-0.2-34.9-0.3C-250.7,58.3-255.5,58.3-260.3,58.4C-260.3,58.3-260.3,58.3-260.3,58.4z"/>
	<path d="M-333.4-112.2c0,7,0.2,14-0.1,21c-0.1,4.1-0.6,8.3-1.5,12.3c-1.7,8.4-3.9,16.8-5.6,25.2c-1.6,7.8-2.9,15.6-4.1,23.4
		c-1.1,7.3-3.5,13.8-10.1,18.1c-11.4,7.5-26.5,2.3-31.2-10.6c-2.1-5.7-1.2-11.5-1.5-17.3c-0.4-8.1-0.3-16.4-1.8-24.3
		c-1.1-5.9-0.6-11.6-0.9-17.3c-0.4-7.4,0.5-15-1.7-22.2c-1.9-6.3-1-12.8-1.1-19.3c-0.1-8.6,0.1-17.3-0.2-25.9
		c-0.4-10.1,0.8-19.8,4.2-29.3c3.5-9.6,11-13.3,20.5-13.8c3-0.1,6-0.3,8.9-1c5.7-1.3,11-0.6,15.8,2.6c3.3,2.2,6.8,3.3,10.8,3.3
		c5.1,0.1,10,0.7,14.1,4c0.8,0.7,2.1,0.9,3.2,1c1.3,0.2,2.7,0.2,4,0.1c8.4-0.7,16.5,0.2,24.2,4.2c2.9,1.5,6.8,1.7,10.2,1.7
		c8.7,0,14.9,3.6,20.2,10.7c5.8,7.9,8.6,16.7,10.9,25.9c1,4.2,0.3,8.9,0.4,13.4c0,4,0,8,0.1,12c0,0.8-0.1,1.8,0.3,2.4
		c4.9,7.2,4.9,16.2,8.9,23.6c2.7,4.9,6.2,9.4,9.9,13.6c1.5,1.7,4.2,2.7,6.6,3.2c5,1.1,9.4,3.2,13.3,6.5c0.7,0.6,1.7,0.9,2.5,1.3
		c0.3-1.1,0.8-2.1,0.8-3.2c0-11.2-0.2-22.3-0.2-33.5c0-2.8,0.3-5.7,1.2-8.3c3.3-9.1,1.3-18.5,1.9-27.7c0.4-6.3-0.2-12.6-1.8-18.7
		c-1.4-5.7,0.1-10.8,2.8-15.7c0.8-1.5,1.3-3.3,1.5-5.1c0.6-4.3,0.4-8.7,1.4-12.8c3.3-13.5,16.8-19.1,29-13.7
		c5.2,2.3,8.9,6.6,10.6,12c1,3.2,2.5,5.7,4.7,8c3.8,3.9,5.3,8.8,5.5,14.1c0.1,3.3,0.3,6.7,0,10c-0.7,6.4-1.7,12.8-2.5,19.2
		c-1.1,8.9-2.6,17.7-3.3,26.6c-0.5,6.8-0.3,13.7-0.1,20.5c0.2,5.6-0.9,10.9-2.2,16.2c-0.6,2.2-0.7,4.6-0.7,6.9
		c0,8.3,0.1,16.7,0.2,25c0,1.8,0.3,3.7,1.1,5.2c7.3,13.3,1.1,24.6-9.7,31.6c-8.4,5.5-17.6,7.7-27.6,4.8c-3.7-1.1-7.4-1.9-11.1-2.8
		c-1.6-0.4-3.3-0.6-4.9-0.8c-5.5-0.5-10.9-0.7-16.4-1.4c-2.6-0.3-5.4-1.1-7.5-2.5c-6.7-4.3-12.8-9.3-17.8-15.7
		c-5.7-7.2-11.6-14.1-15.8-22.3c-1.3-2.7-2.6-5.4-3.7-8.1c-3.5-8-8-15.3-14.1-21.6c-4.7-4.9-6.6-10.7-7.2-17.5
		c-0.5-6-2.7-11.9-4.2-17.8c-0.8-3.2-2.4-6.3-2.4-9.5c-0.1-4-1.7-7.1-3.8-10c-0.9-1.2-2.5-2.5-3.9-2.7c-5.1-0.9-10.2-1.5-15.3-2
		c-3.5-0.4-7-0.4-10.4-0.9c-2.8-0.4-3.5,0.7-3.5,3.2C-333.3-127.2-333.4-119.7-333.4-112.2L-333.4-112.2z"/>
	<path d="M215.7-193.8c11.6,0,23.3-0.3,34.9,0.1c6.3,0.2,12.7,0.9,18.6,2.8c9.4,3,19,3.1,28.6,3c15.5-0.1,31,0,46.5-0.1
		c3.3,0,6.5-0.9,9.8-1.4c1.8-0.3,3.5-1.2,5.3-1.3c3.3-0.1,5.9-1.5,8.8-3c11.7-5.9,25.7-0.5,29.5,12.6c1.1,3.6,2.9,7,4.1,10.5
		c1.1,3.4,2.7,7,2.7,10.5c0.3,20.1,0.1,40.3,0.1,60.5c0,1.3,0,2.7-0.5,3.9c-2.2,6.6-2.6,13.3-2.6,20.1c0.1,18.5,0,37,0.1,55.5
		c0.1,13.6-8.8,23-22.5,23.1c-15.3,0.1-30.7,0.3-46-0.4c-6.3-0.3-12.7-2.5-18.8-4.6c-5.8-2-11.1-5.1-16.8-7.5
		c-2.6-1.1-5.4-2.1-8.1-2.2c-7.8-0.3-15.6,0-23.4,0c-8.1,0-16.3,0-24.4,0c-8.6,0-17.3,0-25.9-0.1c-8.6,0-17.3,0-25.9,0
		c-1.7,0-3.3-0.1-5,0c-14.5,1.6-26.2-12.2-26.5-24.8c-0.1-4.7-0.1-9.2-1.9-13.7c-0.8-2-1-4.2-1.1-6.3c-0.1-14.7,0.1-29.3-0.1-44
		c0-2.9-0.6-5.9-1.5-8.7c-2-6.4-1.2-12.9-1.4-19.3c-0.2-6.3,0.1-12.7-0.3-19c-0.3-4.9-1-9.9-2.1-14.7c-1.7-8,1.4-16.8,8.2-21.5
		c2.2-1.5,4.6-2.8,6.6-4.4c5.5-4.3,11.5-5.9,18.6-5.5c10.6,0.5,21.3,0.1,32,0.1C215.7-193.6,215.7-193.7,215.7-193.8z M226.3-151.3
		c0-0.1,0-0.3,0-0.4c-9.3,0-18.7,0.1-28,0c-2.8,0-3.8,0.8-3.7,3.7c0.2,6.5,0.1,13,0,19.5c-0.1,5.7,0.1,11.3,1.9,16.7
		c0.6,1.9,1,3.9,1,5.8c0.1,7.8,0,15.7,0,23.5c0,7.5,0,15,0.1,22.5c0.1,5.4,0.8,6,6,6.2c5,0.2,10,0.3,14.9,0.3
		c12,0,23.9-0.3,35.9-0.3c11.8,0,23.6,0.8,35.4,0.2c9.3-0.5,17.8,2,25.3,6.3c13.1,7.7,26.9,8.9,41.4,8.2c2-0.1,3.1-0.9,3.2-2.9
		c0-0.8,0.1-1.7,0.1-2.5c0-11.3-0.2-22.6,0-34c0.1-5.8,0.8-11.5,1.4-17.3c0.2-2.1,1.4-4.2,1.4-6.2c0.2-14.3,0.1-28.6,0.2-43
		c0-2.6-1-3-3.4-2.3c-2.7,0.7-5.5,1.3-8.3,1.3c-21.8,0.1-43.6-0.1-65.5,0c-8.4,0-16.5-1.6-24.5-3.9c-2.5-0.7-5.2-1.4-7.8-1.5
		C244.3-151.4,235.3-151.3,226.3-151.3z"/>
	<path d="M256.5,198.3c-8.1,0-16.3,0-24.4,0c-8.3,0.1-16.6,0.5-24.9,0.2c-4.5-0.2-8.6,0.6-12.7,1.8c-6.5,2-12.5,1.2-18-2.8
		c-7-5.2-10-12.1-8.8-20.8c0.2-1.7,0.1-3.6-0.6-5.1c-1.8-4-2.7-8.1-2.7-12.5c0.1-22.3,0-44.6,0-67c0-14.3-0.1-28.6,0-43
		c0.1-11.4,9-20.4,20.5-21.1c2.8-0.1,5.7-0.1,8.5,0c7.7,0.2,15.2-0.3,22.8-1.6c6.7-1.1,13.6-0.9,20.3-1.4c3.3-0.2,6.6-0.9,9.8-1.2
		c5.9-0.6,11.9-1.6,17.8-1.6c35.5-0.1,70.9,0,106.4,0c4.7,0,9.3,0.2,14-0.1c15.5-0.9,25.8,14.1,25.9,25.1c0.2,21.2,0,42.3,0.1,63.5
		c0,3.2,1,6.5,1.5,9.7c0.5,2.9,1.3,5.9,1.3,8.8c0.1,12.7-0.2,25.3,0.1,38c0.4,14.3-12.4,25.1-25.5,22.2c-2.5-0.5-5.2,0.4-7.9,0.4
		c-4.7,0.1-9.3-0.2-14,0c-3.1,0.1-6.2,0.9-9.3,1.4c-0.5,0.1-1,0.3-1.4,0.4c-9,1.4-18,2.9-27,4.2c-3.6,0.5-7.3,0.5-10.8,1.5
		c-6.4,1.9-12.9,1-19.3,1.2c-9.3,0.3-18.6,0.1-27.9,0.1c-4.7,0-9.3,0-14,0C256.5,198.5,256.5,198.4,256.5,198.3z M206.3,112.9
		L206.3,112.9c0.1,13.2,0.2,26.3,0.1,39.5c0,2.7,0.8,4.1,3.6,4.1c1.3,0,2.7,0.2,4,0.2c6,0,11.9,0,17.9,0c8,0,15.9,0,23.9-0.1
		c8.3,0,16.6-0.1,24.9-0.2c12.6,0,25.2,1,37.7-1.9c3.5-0.8,7.2-0.9,10.9-1.4c5.1-0.7,10.2-1.3,15.2-2.4c8-1.6,15.9-3.6,24.1-3
		c1.7,0.1,3-0.9,2.8-2.7c-0.5-6.4,1.2-12.9-1.4-19.2c-1.1-2.5-1.4-5.5-1.5-8.3c-0.1-15,0.2-30,0-44.9c-0.1-8.4,1.8-8.3-8.4-8.3
		c-26.5,0-52.9-0.1-79.4,0.1c-10.4,0.1-21-1.1-31.3,1.8c-1.6,0.5-3.2,0.9-4.9,0.9c-10.6,0-21.2,0.4-31.8,1.9c-5.8,0.8-6.4,1.2-6.4,7
		C206.4,88.3,206.3,100.6,206.3,112.9z"/>
</g>
</svg>
