<?xml version="1.0" encoding="utf-8"?>
<!-- Generator: Adobe Illustrator 16.0.0, SVG Export Plug-In . SVG Version: 6.00 Build 0)  -->
<!DOCTYPE svg PUBLIC "-//W3C//DTD SVG 1.1//EN" "http://www.w3.org/Graphics/SVG/1.1/DTD/svg11.dtd">
<svg version="1.1" id="Layer_1" xmlns="http://www.w3.org/2000/svg" xmlns:xlink="http://www.w3.org/1999/xlink" x="0px" y="0px"
	 width="108.141px" height="89px" viewBox="0 2.445 108.141 89" enable-background="new 0 2.445 108.141 89" xml:space="preserve">
<g>
	<path fill="#E8D04B" d="M38.989,7.978l21.338,21.337v33.503L38.989,41.479V7.978z M65.062,17.192l22.223,22.222L62.14,64.56V29.338
		c0.002-0.058,0.002-0.115,0-0.172v-0.023h-0.002c-0.025-0.396-0.188-0.787-0.488-1.091h-0.002l-3.729-3.716L65.062,17.192z
		 M96.517,65.504H64.044L80.28,49.269L96.517,65.504z M98.337,64.611L98.337,64.611L81.638,47.913l8.318-8.319l-1.1-1.1v-0.001
		L64.945,14.582l-1.246,1.246l0.004,0.005l-7.143,7.142L40.119,6.539c-0.403-0.486-1.048-0.747-1.709-0.663
		c-0.765,0.097-1.254,0.833-1.241,1.591V7.49c0,0.005-0.002,0.01,0,0.014v32.153L14.231,16.72l-1.359,1.358l48.735,48.734
		c0.289,0.33,0.715,0.536,1.184,0.529c0,0,34.322,0.002,34.371,0.002c0.895,0,1.621-0.725,1.621-1.621
		C98.781,65.292,98.611,64.901,98.337,64.611"/>
	<path fill="#7A7C7E" d="M14.237,64.788c-1.414,0-2.566-1.124-2.566-2.504c0-1.369,1.152-2.488,2.566-2.488
		c1.416,0,2.564,1.119,2.564,2.488C16.801,63.664,15.653,64.788,14.237,64.788 M14.237,57.29c-2.838,0-5.146,2.241-5.146,4.994
		c0,2.756,2.308,4.998,5.146,4.998c2.828,0,5.133-2.242,5.133-4.998C19.369,59.531,17.065,57.29,14.237,57.29"/>
	<path fill="#7A7C7E" d="M26.139,64.74l-0.718,0.042v-4.873l0.718-0.043c1.379,0,2.502,1.092,2.502,2.433
		C28.641,63.642,27.518,64.74,26.139,64.74 M26.139,57.443h-3.488v9.72h3.488c2.755,0,4.998-2.183,4.998-4.864
		C31.137,59.622,28.894,57.443,26.139,57.443"/>
	<path fill="#7A7C7E" d="M37.448,64.74h-0.697v-4.874h0.697c1.382,0,2.506,1.092,2.506,2.433
		C39.953,63.642,38.829,64.74,37.448,64.74 M37.448,57.443h-3.486v9.72h3.486c2.756,0,4.998-2.183,4.998-4.864
		C42.446,59.622,40.203,57.443,37.448,57.443"/>
	<path fill="#7A7C7E" d="M26.731,80.973h3.199c-0.503,1.253-1.713,1.963-3.082,1.963c-1.841,0-3.329-1.488-3.329-3.33
		c0-1.828,1.488-3.327,3.329-3.327c1.455,0,2.73,0.96,3.164,2.332h0.902c-0.455-1.864-2.135-3.2-4.066-3.2
		c-2.32,0-4.197,1.887-4.197,4.195c0,2.322,1.877,4.184,4.197,4.184c2.004,0,3.893-1.248,4.113-3.24l0.045-0.457h-4.275V80.973
		L26.731,80.973z"/>
	<path fill="#7A7C7E" d="M13.334,76.273c1.326,0,2.498,0.796,3.029,1.969H17.3c-0.577-1.673-2.156-2.837-3.966-2.837
		c-2.31,0-4.197,1.887-4.197,4.195c0,2.32,1.888,4.197,4.197,4.197c1.789,0,3.359-1.131,3.941-2.776h-0.938
		c-0.539,1.147-1.699,1.919-3.004,1.919c-1.83,0-3.332-1.498-3.332-3.34C10.002,77.772,11.493,76.273,13.334,76.273"/>
</g>
</svg>
