<?xml version="1.0" encoding="utf-8"?>
<!-- Generator: Adobe Illustrator 14.0.0, SVG Export Plug-In . SVG Version: 6.00 Build 43363)  -->
<!DOCTYPE svg PUBLIC "-//W3C//DTD SVG 1.1//EN" "http://www.w3.org/Graphics/SVG/1.1/DTD/svg11.dtd">
<svg version="1.1" id="Capa_1" xmlns="http://www.w3.org/2000/svg" xmlns:xlink="http://www.w3.org/1999/xlink" x="0px" y="0px"
	 width="480px" height="640px" viewBox="0 0 480 640" enable-background="new 0 0 480 640" xml:space="preserve">
<path fill="#CCCCCC" d="M12,1.999C13.104,2,13.999,1.103,13.999,0c0.002-1.104-0.893-2.001-1.998-2.001
	c-0.062,0-0.119,0.013-0.179,0.019c-0.04-0.24-0.083-0.478-0.138-0.713c0.056-0.018,0.112-0.027,0.167-0.05
	c1.021-0.422,1.504-1.594,1.082-2.612c-0.421-1.021-1.591-1.507-2.612-1.084c-0.057,0.023-0.104,0.057-0.156,0.085
	C10.036-6.563,9.903-6.764,9.763-6.96C9.808-6.998,9.857-7.029,9.9-7.071c0.781-0.78,0.779-2.048,0-2.828
	c-0.78-0.781-2.047-0.783-2.828-0.002C7.028-9.858,6.997-9.81,6.958-9.764c-0.195-0.141-0.397-0.273-0.603-0.401
	c0.028-0.053,0.062-0.101,0.084-0.156c0.423-1.02-0.063-2.19-1.083-2.613c-1.019-0.423-2.189,0.06-2.613,1.081
	c-0.022,0.056-0.032,0.112-0.05,0.168c-0.235-0.054-0.472-0.098-0.712-0.138C1.987-11.882,1.999-11.939,1.999-12
	c0-1.105-0.895-2-2-2c-1.104,0-2,0.895-2,2c0,0.061,0.014,0.118,0.019,0.177c-0.239,0.04-0.478,0.084-0.712,0.138
	c-0.018-0.055-0.028-0.111-0.051-0.166c-0.423-1.021-1.592-1.505-2.613-1.083c-1.02,0.423-1.505,1.592-1.082,2.613
	c0.023,0.056,0.057,0.104,0.084,0.156c-0.205,0.129-0.407,0.262-0.604,0.401C-6.999-9.809-7.029-9.858-7.071-9.9
	c-0.781-0.781-2.047-0.78-2.828,0c-0.781,0.781-0.782,2.047,0,2.828c0.042,0.042,0.09,0.073,0.136,0.111
	c-0.141,0.197-0.273,0.398-0.402,0.604c-0.052-0.027-0.101-0.061-0.155-0.084c-1.021-0.423-2.19,0.063-2.613,1.082
	c-0.423,1.021,0.061,2.19,1.082,2.613c0.055,0.022,0.111,0.032,0.166,0.05c-0.053,0.235-0.098,0.473-0.137,0.713
	c-0.06-0.005-0.117-0.018-0.178-0.018C-13.105-1.999-13.999-1.104-14,0s0.895,2,1.999,2c0.061,0,0.118-0.013,0.178-0.018
	c0.04,0.239,0.084,0.478,0.138,0.713c-0.056,0.018-0.112,0.027-0.167,0.05c-1.021,0.423-1.504,1.593-1.082,2.612
	c0.422,1.021,1.592,1.506,2.613,1.083c0.055-0.023,0.104-0.057,0.156-0.084c0.128,0.205,0.261,0.407,0.401,0.604
	C-9.809,6.998-9.857,7.029-9.9,7.071c-0.781,0.781-0.779,2.048,0,2.828c0.78,0.781,2.047,0.782,2.828,0.001
	c0.043-0.043,0.074-0.092,0.111-0.137c0.197,0.141,0.398,0.273,0.604,0.402c-0.027,0.052-0.061,0.1-0.084,0.155
	c-0.422,1.021,0.064,2.19,1.082,2.613c1.021,0.423,2.191-0.061,2.614-1.082c0.022-0.055,0.032-0.111,0.05-0.167
	c0.234,0.054,0.473,0.098,0.713,0.138C-1.987,11.882-2,11.939-2,12c0,1.104,0.897,1.999,1.999,2c1.105,0.001,2.002-0.894,2.002-2
	c0-0.061-0.014-0.118-0.019-0.178c0.239-0.039,0.478-0.083,0.712-0.137c0.018,0.055,0.027,0.111,0.051,0.166
	c0.422,1.021,1.593,1.504,2.611,1.083c1.021-0.422,1.508-1.592,1.084-2.613c-0.023-0.056-0.057-0.104-0.084-0.156
	c0.205-0.129,0.406-0.262,0.604-0.402C6.997,9.809,7.028,9.858,7.071,9.9c0.781,0.781,2.047,0.779,2.828,0
	c0.781-0.78,0.783-2.047,0-2.828C9.857,7.028,9.809,6.997,9.763,6.96c0.141-0.197,0.273-0.399,0.402-0.604
	c0.053,0.027,0.101,0.061,0.156,0.084c1.021,0.423,2.189-0.063,2.612-1.082c0.424-1.02-0.06-2.19-1.081-2.613
	c-0.055-0.022-0.111-0.033-0.168-0.051c0.055-0.234,0.098-0.473,0.138-0.712C11.882,1.986,11.938,1.999,12,1.999z M-0.001,5.429
	c-2.998,0-5.428-2.431-5.428-5.429s2.43-5.429,5.428-5.429c2.999,0,5.43,2.431,5.43,5.429S2.998,5.429-0.001,5.429z"/>
</svg>
