<?xml version="1.0" encoding="utf-8"?>
<!-- Generator: Adobe Illustrator 14.0.0, SVG Export Plug-In . SVG Version: 6.00 Build 43363)  -->
<!DOCTYPE svg PUBLIC "-//W3C//DTD SVG 1.1//EN" "http://www.w3.org/Graphics/SVG/1.1/DTD/svg11.dtd">
<svg version="1.1" id="Capa_1" xmlns="http://www.w3.org/2000/svg" xmlns:xlink="http://www.w3.org/1999/xlink" x="0px" y="0px"
	 width="480px" height="640px" viewBox="0 0 480 640" enable-background="new 0 0 480 640" xml:space="preserve">
<circle fill="#D62761" cx="8" cy="8" r="8"/>
<path fill="#F2F2F2" d="M8,2.667C6.711,2.667,5.667,3.711,5.667,5v4.667c0,0-0.146,0-0.334,0C4.333,9.667,4,9.333,4,9.333v1
	c0,0,0.333,0.334,1.333,0.334h0.334c0,0,0,0.291,0,0.666c0,2-0.334,2-0.334,2h1c0,0,0.334,0,0.334-2v-0.666H8c2.208,0,4-1.792,4-4
	C12,4.458,10.208,2.667,8,2.667z M8,9.667H6.667V5c0-0.737,0.596-1.333,1.333-1.333c1.657,0,3,1.342,3,3
	C11,8.324,9.657,9.667,8,9.667z"/>
<rect id="_x3C_Sector_x3E_" fill="none" width="16" height="16"/>
</svg>
