<?xml version="1.0" encoding="utf-8"?>
<!-- Generator: Adobe Illustrator 14.0.0, SVG Export Plug-In . SVG Version: 6.00 Build 43363)  -->
<!DOCTYPE svg PUBLIC "-//W3C//DTD SVG 1.1//EN" "http://www.w3.org/Graphics/SVG/1.1/DTD/svg11.dtd">
<svg version="1.1" id="Capa_1" xmlns="http://www.w3.org/2000/svg" xmlns:xlink="http://www.w3.org/1999/xlink" x="0px" y="0px"
	 width="100px" height="100px" viewBox="0 0 100 100" enable-background="new 0 0 100 100" xml:space="preserve">
<circle fill="#DAEBD9" stroke="#000000" cx="50" cy="50" r="45"/>
<g>
	<g>
		<path d="M11.235,58.183c4.693,4.126,11.357,5.896,17.191,7.812c7.581,2.487,15.833,3.107,23.749,2.568
			c14.917-1.017,25.05-12.535,33.271-23.617c1.154-1.556-1.451-3.049-2.59-1.515C74.958,54.078,66.14,63.775,52.176,65.563
			c-6.496,0.831-13.406-0.097-19.727-1.563c-6.081-1.411-14.374-3.789-19.093-7.938C11.91,54.79,9.78,56.903,11.235,58.183
			L11.235,58.183z"/>
	</g>
</g>
<g>
	<g>
		<path d="M18.46,61.913c0.479,6.551,5.782,14.17,10.858,18.186c5.994,4.742,14.963,3.657,21.972,2.769
			c8.207-1.041,13.677-3.906,20.33-8.804c6.917-5.093,9.305-12.678,9.48-21.013c0.041-1.936-2.959-1.932-3,0
			c-0.17,8.083-2.605,14.454-9.199,19.309c-5.661,4.168-10.594,6.572-17.611,7.508c-5.628,0.75-11.352,1.271-16.863-0.412
			c-5.901-1.804-12.529-11.553-12.968-17.542C21.32,59.996,18.319,59.982,18.46,61.913L18.46,61.913z"/>
	</g>
</g>
<g>
	<g>
		<path d="M28.224,35.508c1.935,0,1.935-3,0-3S26.29,35.508,28.224,35.508L28.224,35.508z"/>
	</g>
</g>
<g>
	<g>
		<path d="M73.254,29.76c1.935,0,1.935-3,0-3S71.319,29.76,73.254,29.76L73.254,29.76z"/>
	</g>
</g>
</svg>
